<svg width="37" height="54" viewBox="0 0 37 54" fill="none" xmlns="http://www.w3.org/2000/svg">
<path d="M27.8703 6.241C27.5649 5.1669 26.8007 4.9624 26.201 4.6135C25.5104 4.22771 24.9844 3.69751 24.6963 2.8416C24.4277 1.67685 24.7761 1.07921 25.9428 0.813592C27.9299 0.352983 28.1485 0.336107 29.0341 2.06795C29.4499 2.8701 30.0496 3.21902 30.7769 3.51417C32.0499 4.03067 33.4137 4.58404 34.6498 5.1912C36.1587 5.90903 36.4121 6.32858 35.75 7.96028C35.5293 8.50417 35.3995 9.08496 35.0337 9.46443C33.1487 11.7612 31.1361 14.1118 29.1601 16.3717C28.1538 17.547 27.6624 17.4532 26.3915 16.4096C25.5017 15.7318 25.4864 14.9866 26.1832 13.7913C26.6961 13.0492 27.3 12.3441 27.7587 11.4745C28.4187 10.3698 28.0397 9.477 26.8189 9.61507C22.9009 10.1368 18.6756 10.1115 15.3684 12.7814C14.7105 13.359 13.9984 13.8091 13.4314 14.4236C11.7844 16.3947 11.8386 16.5223 14.3497 17.1189C16.8608 17.7155 18.9499 19.0911 21.0391 20.4667C23.1282 21.8423 22.841 25.4208 20.9039 27.0631C19.4235 28.3627 17.9646 28.8265 16.0011 27.9242C13.7649 26.9112 11.6563 25.8445 10.0974 23.945C8.97364 22.5389 8.28099 22.6801 7.11015 23.9998C6.19472 25.212 6.04347 26.6287 6.23853 27.9747C6.39888 28.8844 6.88817 29.5052 8.08958 29.676C11.4211 30.0776 14.5492 31.2413 16.8334 33.963C17.9572 35.3691 18.1328 37.024 17.6157 38.8201C17.1355 40.5256 15.9668 41.3183 14.3822 41.3088C13.2349 41.2655 12.0162 40.8766 10.8342 40.397C8.52433 39.5653 6.41576 38.4985 5.1317 36.1827C5.07756 36.0552 4.82218 36.1627 4.73126 36.1258C4.69447 36.2165 4.43903 36.324 4.49317 36.4515C5.06101 40.2715 5.79332 43.947 7.82005 47.3032C8.32673 48.1422 8.94379 48.7094 9.81623 49.1689C11.0524 49.7761 11.5569 51.1422 11.0788 52.3206C10.7109 53.2271 9.54428 53.4927 8.23458 53.0669C5.47013 52.0507 3.8571 50.0237 2.84787 47.2916C1.69359 44.395 1.01329 41.374 0.333038 38.353C-0.221576 35.8053 -0.284785 33.3514 1.76263 31.4373C2.29288 30.9134 2.38585 30.4233 2.24286 29.7318C2.17136 29.3861 2.154 29.1679 2.08251 28.8221C1.15098 24.8546 2.76528 21.9201 5.79756 19.6665C6.54643 19.1258 7.16761 18.6388 7.31681 17.7492C8.91294 10.162 16.7418 6.26517 23.5713 6.39698C24.8831 6.2958 26.2858 6.2315 27.8703 6.241ZM15.3742 20.5963C14.465 20.2273 13.9736 20.1336 13.4086 20.221C12.625 20.3254 12.2398 21.0137 12.675 21.507C13.7272 22.5674 14.6885 23.5909 15.9052 24.5069C16.4681 24.9464 17.4336 24.9159 17.9832 24.0832C18.4961 23.3411 18.0977 22.7572 17.6625 22.2638C16.9004 21.5323 16.0648 20.9821 15.3742 20.5963ZM13.4681 37.5594C13.223 35.0318 11.4455 33.1492 9.53403 32.9015C9.22448 32.8814 8.87814 32.9521 8.71365 33.0965C8.51238 33.3315 8.5839 33.6773 8.7831 33.9692C9.81382 35.8655 10.9549 37.4899 13.4681 37.5594Z" fill="#FACF71"/>
</svg>
