<svg width="66" height="95" viewBox="0 0 66 95" fill="none" xmlns="http://www.w3.org/2000/svg">
<path d="M50.5503 10.4228C50.0037 8.50038 48.636 8.13438 47.5627 7.50992C46.3267 6.81944 45.3851 5.87051 44.8696 4.33863C44.3888 2.254 45.0124 1.18436 47.1005 0.708974C50.6569 -0.115413 51.0481 -0.145619 52.6333 2.95398C53.3774 4.38964 54.4507 5.01413 55.7525 5.54237C58.0307 6.46679 60.4717 7.4572 62.684 8.54387C65.3846 9.82862 65.8381 10.5795 64.6531 13.4999C64.2581 14.4733 64.0258 15.5128 63.3712 16.1919C59.9975 20.3027 56.3953 24.5096 52.8588 28.5544C51.0577 30.6578 50.1781 30.4899 47.9036 28.6222C46.3111 27.4092 46.2837 26.0754 47.5308 23.936C48.4488 22.6079 49.5295 21.3458 50.3506 19.7895C51.5319 17.8124 50.8535 16.2144 48.6685 16.4616C41.6563 17.3953 34.0939 17.35 28.1749 22.1286C26.9973 23.1624 25.7228 23.9679 24.708 25.0678C21.7603 28.5956 21.8573 28.8238 26.3516 29.8917C30.8459 30.9595 34.5849 33.4215 38.324 35.8834C42.0631 38.3454 41.549 44.7502 38.0821 47.6894C35.4326 50.0155 32.8215 50.8455 29.3073 49.2306C25.3049 47.4176 21.5309 45.5084 18.7409 42.1088C16.7297 39.5922 15.49 39.845 13.3945 42.2069C11.7561 44.3764 11.4854 46.9119 11.8345 49.321C12.1215 50.9491 12.9972 52.0603 15.1474 52.3659C21.11 53.0848 26.7087 55.1675 30.7969 60.0386C32.8081 62.5553 33.1224 65.5172 32.197 68.7318C31.3375 71.7842 29.2457 73.2029 26.4098 73.1859C24.3564 73.1085 22.1751 72.4123 20.0596 71.5539C15.9255 70.0654 12.1517 68.1562 9.85351 64.0115C9.75662 63.7832 9.29955 63.9757 9.13682 63.9096C9.07098 64.0719 8.6138 64.2643 8.7107 64.4925C9.72699 71.3294 11.0377 77.9077 14.665 83.9145C15.5719 85.4162 16.6763 86.4312 18.2377 87.2537C20.4501 88.3404 21.3532 90.7854 20.4974 92.8945C19.8391 94.5169 17.751 94.9923 15.407 94.2301C10.4592 92.4115 7.57229 88.7836 5.76601 83.8937C3.7001 78.7095 2.48253 73.3026 1.26504 67.8958C0.272405 63.336 0.159277 58.9441 3.82367 55.5182C4.77269 54.5806 4.93909 53.7034 4.68317 52.4658C4.55521 51.847 4.52414 51.4565 4.39617 50.8377C2.72896 43.7368 5.61819 38.4847 11.0452 34.4513C12.3856 33.4835 13.4973 32.612 13.7643 31.0197C16.6211 17.4404 30.6329 10.466 42.8561 10.7019C45.2039 10.5208 47.7144 10.4058 50.5503 10.4228ZM28.1852 36.1154C26.5579 35.4551 25.6784 35.2872 24.6673 35.4438C23.2648 35.6305 22.5754 36.8624 23.3543 37.7453C25.2375 39.6432 26.958 41.475 29.1357 43.1144C30.1431 43.9011 31.871 43.8465 32.8547 42.3561C33.7727 41.028 33.0597 39.9828 32.2808 39.0999C30.9168 37.7906 29.4212 36.8058 28.1852 36.1154ZM24.7737 66.4755C24.335 61.9515 21.1537 58.5822 17.7327 58.1388C17.1786 58.1029 16.5588 58.2293 16.2644 58.4878C15.9041 58.9085 16.0322 59.5273 16.3887 60.0498C18.2334 63.4437 20.2757 66.3509 24.7737 66.4755Z" fill="#FACF71"/>
</svg>
