<svg width="25" height="25" viewBox="0 0 25 25" fill="none" xmlns="http://www.w3.org/2000/svg">
<g id="Cart">
<path id="Vector" d="M2.08331 3.12505C4.12407 3.12503 5.90498 4.3926 6.6143 6.23137M6.6143 6.23137C6.73817 6.55247 6.82936 6.89099 6.88355 7.24322L7.84334 13.4818C8.11928 15.2755 9.73603 16.5498 11.5445 16.3991L18.8462 15.7906C20.0006 15.6944 20.9229 14.7931 21.0663 13.6436C21.2912 11.8403 21.4725 10.6851 21.7064 8.74784C21.7478 8.40528 21.7685 8.23394 21.7446 8.08777C21.6842 7.71909 21.4257 7.40655 21.075 7.27803C20.9359 7.22707 20.7618 7.2151 20.4137 7.19116L6.6143 6.23137ZM12.5 20.8333C12.5 21.4086 12.0336 21.875 11.4583 21.875C10.883 21.875 10.4166 21.4086 10.4166 20.8333C10.4166 20.258 10.883 19.7917 11.4583 19.7917C12.0336 19.7917 12.5 20.258 12.5 20.8333ZM20.8333 20.8333C20.8333 21.4086 20.3669 21.875 19.7916 21.875C19.2163 21.875 18.75 21.4086 18.75 20.8333C18.75 20.258 19.2163 19.7917 19.7916 19.7917C20.3669 19.7917 20.8333 20.258 20.8333 20.8333Z" stroke="white" stroke-width="2" stroke-linecap="round" stroke-linejoin="round"/>
</g>
</svg>
