<svg width="13" height="17" viewBox="0 0 13 17" fill="none" xmlns="http://www.w3.org/2000/svg">
<path d="M12.1077 4.19746C12.0418 4.4338 11.9759 4.67015 11.9231 4.85923C11.5737 5.01648 11.5209 5.20553 11.7386 5.52096C11.4431 6.76311 10.8431 7.81845 10.1827 8.90788C9.59589 9.91595 9.05638 10.9372 8.37507 11.9189C7.63332 12.9347 6.77615 13.8164 6.0344 14.8322C5.68716 15.3467 5.34538 15.6589 4.67826 15.6767C3.85618 15.7021 3.79571 15.7362 3.55494 14.9558C3.15473 13.4687 2.74135 12.0288 2.71151 10.4921C2.59364 7.8101 2.58347 5.10718 3.35583 2.52063C3.42175 2.28429 3.48767 2.04794 3.54041 1.85886C3.73816 1.14984 3.99633 0.406744 4.81842 0.381309C5.6405 0.355874 6.5044 0.545892 6.96829 1.43945C7.19364 1.90987 7.47944 2.34618 7.33442 2.86613C7.29487 3.00793 7.37619 3.08156 7.45753 3.15519C7.49161 3.21564 7.52569 3.27609 7.51251 3.32335C7.36525 3.48606 7.15754 3.68285 7.19162 3.7433C7.52691 4.55005 6.89065 5.18772 6.75334 5.86266C6.64563 5.88356 6.59835 5.87038 6.67969 5.94401C6.67969 5.94401 6.74015 5.90992 6.75334 5.86266C7.19187 5.93402 7.53361 5.62179 7.96443 5.53817C8.28754 5.47545 8.45572 5.42046 8.56566 5.75679C8.62063 5.92496 8.72284 6.10629 9.09321 6.05676C9.3437 5.15867 9.70191 4.23968 9.43253 3.1966C9.64247 3.35704 9.77105 3.44385 9.99194 3.19979C10.3337 2.88756 10.7096 2.63576 11.1954 2.7203C11.2899 2.74667 11.3712 2.82031 11.4657 2.84668C11.5702 3.38526 12.0373 3.71933 12.1077 4.19746Z" fill="#89AB69"/>
<path d="M9.41937 3.24386C9.68874 4.28694 9.33053 5.20596 9.08004 6.10405C8.70966 6.15358 8.60746 5.97222 8.55249 5.80405C8.44255 5.46771 8.27438 5.52271 7.95126 5.58543C7.56771 5.68223 7.1787 5.98128 6.74017 5.90992C6.89067 5.18771 7.561 4.61052 7.17844 3.79059C7.14437 3.73014 7.41252 3.49926 7.49933 3.37064C7.8115 3.71243 7.71374 4.24556 7.90502 4.65552C8.52264 4.26739 8.61818 3.37701 9.41937 3.24386Z" fill="#9BB982"/>
<path d="M11.2294 2.78076C10.6964 2.68303 10.3546 2.99526 10.026 3.26023C9.77108 3.44384 9.62928 3.40429 9.46661 3.25702C10.282 2.15987 10.3293 2.17307 11.2294 2.78076Z" fill="#9BB982"/>
<path d="M12.1077 4.19748C12.0505 3.67208 11.5834 3.33801 11.513 2.85987C11.7207 2.66308 11.9361 2.62128 12.0724 2.86308C12.2978 3.33349 12.4286 3.77753 12.1077 4.19748Z" fill="#9BB982"/>
<path d="M11.6782 5.55506C11.4605 5.23964 11.5132 5.05055 11.8627 4.8933C11.9859 5.18237 11.9804 5.38463 11.6782 5.55506Z" fill="#9BB982"/>
<path d="M7.45755 3.1552C7.32895 3.06838 7.30807 2.96067 7.33444 2.86613C7.35534 2.97385 7.42347 3.09475 7.45755 3.1552Z" fill="#9BB982"/>
<path d="M6.74019 5.90991C6.72701 5.95718 6.66654 5.99127 6.66654 5.99127C6.58521 5.91764 6.58523 5.91764 6.74019 5.90991Z" fill="#9BB982"/>
</svg>
