<svg width="66" height="56" viewBox="0 0 66 56" fill="none" xmlns="http://www.w3.org/2000/svg">
<path d="M46.2243 3.07738C40.6826 3.16171 35.8612 5.26578 31.8309 9.09022C29.6555 11.2583 28.0171 13.6877 26.9157 16.3786C26.383 17.7884 25.7767 18.3835 24.1297 17.4705C18.9027 14.8148 13.3611 14.8991 7.68231 17.2535C4.07496 18.7245 1.93844 22.1356 2.6977 25.3983C3.23899 27.331 3.99395 28.9224 5.49952 30.4342C7.18409 32.0332 9.22531 33.2493 10.8738 34.7194C15.89 38.8302 21.6524 41.1902 28.0919 42.6557C32.7068 43.6781 37.2857 44.5716 41.8298 45.8934C44.8352 46.6887 47.9417 45.0852 49.2928 42.1821C52.2088 36.0348 54.9456 29.8004 56.1799 23.1683C56.9204 19.1891 58.2327 15.043 57.2944 11.6931C55.7066 6.02409 51.7298 2.86421 46.2243 3.07738ZM50.8794 19.698C50.0349 24.9619 48.5466 30.135 46.7364 35.2627C46.2037 36.6725 45.5282 38.124 44.6736 39.4885C43.4278 41.6639 43.2849 41.7056 40.7804 41.0429C38.9197 40.471 36.9537 40.6267 34.9862 40.2253C29.4055 39.0667 24.2161 37.097 19.6676 34.104C17.5904 32.759 15.4772 31.2851 13.3639 29.8113C11.4657 28.5535 10.3166 26.659 9.34656 24.8515C8.59162 23.26 8.69418 21.4181 9.97748 19.9286C11.4037 18.3973 13.3351 18.6699 14.9808 19.0258C17.9861 19.8211 20.8125 20.5293 23.2491 22.6056C25.9369 25.0267 30.4378 23.4342 31.6446 20.0158C33.029 16.1273 34.4134 12.239 37.9096 9.26731C38.0164 9.09676 38.3022 9.01331 38.4091 8.84276C43.9753 4.43066 49.449 5.75988 51.0744 12.1148C51.6171 14.6045 51.2663 17.2157 50.8794 19.698Z" fill="#E88280"/>
<path d="M38.7813 28.3858C36.3879 29.2237 37.1067 30.6864 36.896 32.1417C36.0024 32.2631 35.0368 32.1268 34.3222 32.3354C33.3219 32.6273 32.1064 32.7033 31.8235 33.9009C31.6473 34.9279 32.3287 35.7047 33.1169 36.3109C35.1233 37.9552 37.5542 37.8032 41.3752 35.9911C42.7322 35.3163 43.7974 32.4967 43.399 30.5223C42.8909 27.6044 41.8891 27.3393 38.7813 28.3858Z" fill="#E88280"/>
<path d="M26.087 27.7703C25.3363 27.85 24.4427 27.9715 23.4063 28.1346C22.5489 28.3849 21.4779 28.9762 21.9455 30.0941C22.3411 30.9542 22.8086 32.0721 24.4152 31.1851C24.9508 30.8894 25.6654 30.6809 26.3438 30.3435C27.2013 30.0932 27.8077 29.4981 27.7341 28.6833C27.7673 27.698 26.8737 27.8194 26.087 27.7703Z" fill="#E88280"/>
<path d="M40.1929 21.2838C40.05 21.3255 39.9072 21.3672 39.9072 21.3672C38.9429 21.788 38.3728 22.5119 38.6254 23.4138C39.0931 24.5316 40.2724 24.3268 41.2727 24.0348C42.5228 23.5306 43.9158 22.9847 44.4485 21.5748C44.6261 21.1049 44.2319 20.8018 43.8739 20.6275C42.4058 19.8016 41.443 20.7795 40.1929 21.2838Z" fill="#E88280"/>
</svg>
