<svg width="18" height="25" viewBox="0 0 18 25" fill="none" xmlns="http://www.w3.org/2000/svg">
<path d="M16.3939 6.581C16.3057 6.90374 16.2175 7.22649 16.1469 7.48468C15.6794 7.69942 15.6089 7.95758 15.9001 8.38832C15.5047 10.0846 14.7021 11.5257 13.8187 13.0134C13.0337 14.39 12.312 15.7846 11.4006 17.1252C10.4084 18.5123 9.26174 19.7164 8.26949 21.1035C7.80497 21.8061 7.34778 22.2324 6.45536 22.2566C5.35565 22.2914 5.27477 22.3379 4.95268 21.2722C4.41731 19.2414 3.86433 17.2752 3.82441 15.1768C3.66673 11.5143 3.65313 7.82328 4.68633 4.29116C4.77451 3.96842 4.86269 3.64567 4.93324 3.38748C5.19778 2.41927 5.54314 1.40451 6.64285 1.36978C7.74257 1.33505 8.89821 1.59453 9.51876 2.81475C9.82022 3.45713 10.2025 4.05295 10.0085 4.76297C9.95564 4.95661 10.0644 5.05716 10.1732 5.1577C10.2188 5.24025 10.2644 5.32279 10.2468 5.38734C10.0498 5.60953 9.77193 5.87826 9.81751 5.96081C10.266 7.06248 9.4149 7.93327 9.23122 8.85493C9.08714 8.88348 9.0239 8.86548 9.1327 8.96603C9.1327 8.96603 9.21359 8.91948 9.23122 8.85493C9.81785 8.95239 10.275 8.52601 10.8513 8.41182C11.2836 8.32618 11.5085 8.25108 11.6556 8.71036C11.7291 8.94001 11.8659 9.18763 12.3613 9.11999C12.6964 7.89359 13.1756 6.63865 12.8152 5.21424C13.0961 5.43334 13.2681 5.55189 13.5635 5.21861C14.0207 4.79223 14.5235 4.44838 15.1734 4.56384C15.2998 4.59984 15.4086 4.7004 15.5351 4.73641C15.6748 5.47188 16.2997 5.92807 16.3939 6.581Z" fill="#89AB69"/>
<path d="M12.7976 5.2788C13.158 6.70321 12.6788 7.95818 12.3437 9.18459C11.8482 9.25223 11.7115 9.00456 11.638 8.77492C11.4909 8.31563 11.2659 8.39073 10.8337 8.47638C10.3206 8.60856 9.80024 9.01694 9.21361 8.91949C9.41493 7.93327 10.3116 7.14508 9.79989 6.02541C9.75431 5.94286 10.113 5.62758 10.2291 5.45194C10.6467 5.91868 10.516 6.64669 10.7718 7.20653C11.598 6.67651 11.7258 5.46063 12.7976 5.2788Z" fill="#9BB982"/>
<path d="M15.2189 4.6464C14.5058 4.51295 14.0487 4.93932 13.6091 5.30115C13.2681 5.55188 13.0784 5.49787 12.8608 5.29677C13.9515 3.79854 14.0147 3.81656 15.2189 4.6464Z" fill="#9BB982"/>
<path d="M16.3939 6.58103C16.3174 5.86355 15.6924 5.40736 15.5983 4.75443C15.8761 4.4857 16.1643 4.42862 16.3466 4.75881C16.6481 5.40119 16.8231 6.00756 16.3939 6.58103Z" fill="#9BB982"/>
<path d="M15.8192 8.43491C15.528 8.00417 15.5986 7.74596 16.0661 7.53123C16.2308 7.92597 16.2235 8.20217 15.8192 8.43491Z" fill="#9BB982"/>
<path d="M10.1728 5.15659C10.0012 5.03838 9.97337 4.89171 10.0085 4.76299C10.0364 4.90966 10.1273 5.07428 10.1728 5.15659Z" fill="#9BB982"/>
<path d="M9.21318 8.91936C9.19559 8.98372 9.11494 9.03014 9.11494 9.03014C9.00645 8.92988 9.00647 8.92988 9.21318 8.91936Z" fill="#9BB982"/>
</svg>
