<svg width="23" height="32" viewBox="0 0 23 32" fill="none" xmlns="http://www.w3.org/2000/svg">
<path d="M21.7671 7.89215C21.6554 8.32751 21.5437 8.76288 21.4544 9.11117C20.8309 9.40939 20.7415 9.75765 21.1416 10.3301C20.6461 12.6168 19.5982 14.5694 18.4427 16.5862C17.4171 18.4517 16.4769 20.3401 15.2808 22.1599C13.977 24.0439 12.462 25.6852 11.1582 27.5692C10.5489 28.5227 9.94375 29.1049 8.74554 29.1561C7.2691 29.2258 7.16143 29.29 6.70649 27.8653C5.94487 25.1487 5.16092 22.5192 5.06339 19.7013C4.77492 14.7851 4.67941 9.82749 5.9933 5.06143C6.10499 4.62607 6.21669 4.19069 6.30604 3.84241C6.64111 2.53634 7.08377 1.16607 8.56021 1.09639C10.0366 1.02672 11.5944 1.35108 12.4535 2.97712C12.8718 3.83367 13.3978 4.62599 13.1521 5.58378C13.0851 5.84499 13.2333 5.97776 13.3816 6.11055C13.4445 6.22047 13.5075 6.33039 13.4852 6.41746C13.2252 6.72004 12.8576 7.08682 12.9206 7.19675C13.5461 8.66715 12.4211 9.85463 12.1936 11.0965C12.0007 11.1378 11.9154 11.115 12.0636 11.2478C12.0636 11.2478 12.1713 11.1836 12.1936 11.0965C12.9837 11.2151 13.5888 10.6328 14.3605 10.4674C14.9393 10.3433 15.2399 10.2377 15.4471 10.8515C15.5507 11.1585 15.7395 11.4882 16.4036 11.387C16.828 9.73265 17.4454 8.03695 16.9316 6.13119C17.3134 6.41961 17.5469 6.57525 17.9368 6.12139C18.542 5.5391 19.2102 5.06671 20.0855 5.20819C20.2561 5.2539 20.4043 5.38671 20.5749 5.43242C20.778 6.41741 21.6269 7.01709 21.7671 7.89215Z" fill="#89AB69"/>
<path d="M16.9092 6.21827C17.4231 8.12403 16.8057 9.81978 16.3812 11.4741C15.7171 11.5754 15.5283 11.2455 15.4247 10.9386C15.2176 10.3248 14.917 10.4304 14.3382 10.5544C13.6517 10.7427 12.9613 11.3022 12.1713 11.1836C12.4211 9.85463 13.6091 8.77713 12.8982 7.28387C12.8353 7.17395 13.3105 6.74295 13.4628 6.50459C14.0335 7.12279 13.8731 8.10342 14.2285 8.85004C15.3272 8.12081 15.4734 6.48494 16.9092 6.21827Z" fill="#9BB982"/>
<path d="M20.1482 5.31817C19.1876 5.15383 18.5825 5.73611 17.9996 6.23133C17.5468 6.57526 17.2908 6.50668 16.9943 6.24112C18.4281 4.20582 18.5134 4.22871 20.1482 5.31817Z" fill="#9BB982"/>
<path d="M21.7672 7.89219C21.6494 6.93005 20.8005 6.33037 20.6604 5.4553C21.0279 5.08851 21.4138 5.00581 21.6657 5.44552C22.084 6.30207 22.3318 7.11289 21.7672 7.89219Z" fill="#9BB982"/>
<path d="M21.034 10.3944C20.6339 9.82192 20.7233 9.47361 21.3467 9.17539C21.5762 9.70217 21.5722 10.0733 21.034 10.3944Z" fill="#9BB982"/>
<path d="M13.3807 6.10907C13.1478 5.95387 13.1073 5.75745 13.1519 5.5838C13.1924 5.78024 13.3179 5.99945 13.3807 6.10907Z" fill="#9BB982"/>
<path d="M12.1709 11.1834C12.1486 11.2703 12.0413 11.3343 12.0413 11.3343C11.8934 11.2019 11.8935 11.2019 12.1709 11.1834Z" fill="#9BB982"/>
</svg>
