<svg width="30" height="22" viewBox="0 0 30 22" fill="none" xmlns="http://www.w3.org/2000/svg">
<path d="M1.03183 15.1262C1.60263 12.8012 2.88377 11.5103 5.12134 10.8775C7.21079 10.266 7.16122 10.1879 6.33362 8.29033C6.03559 7.56632 5.93525 6.89919 6.01569 6.09259C6.16143 5.04947 6.48852 4.12236 6.76606 3.11716C7.25523 1.08781 9.58957 -0.410672 12.5054 0.364454C15.0259 1.02582 17.1691 2.28073 18.984 3.95179C21.4754 6.26427 24.049 8.53657 26.2611 11.0878C26.9049 11.8475 27.4666 12.6474 28.3734 13.2274C29.7089 14.0585 28.8255 16.485 27.6085 17.0284C25.9803 17.7727 24.3522 18.5169 22.6249 19.105C20.0584 19.8984 17.4097 20.732 14.6776 21.0948C12.3899 21.3939 10.2345 21.9865 7.89658 21.9521C5.77269 21.9155 3.92694 21.1291 2.45846 19.7492C1.05588 18.3883 0.228887 16.7461 1.03183 15.1262ZM6.16034 18.708C7.0001 18.7581 7.93902 18.9645 8.86101 18.9744C10.4414 18.9185 11.9057 18.5101 13.4365 18.3761C15.9383 18.0747 18.2085 17.3237 20.6274 16.807C22.0754 16.4576 23.3577 15.6777 24.8716 15.3474C25.9248 15.1398 26.0058 14.5887 25.2139 13.8502C23.0362 11.9471 21.4009 9.62564 19.1574 7.7036C17.1448 5.97566 15.2471 4.08929 12.4794 3.29295C10.9637 2.85687 9.53203 3.14707 8.84337 4.35311C8.05616 5.65845 8.50531 7.63862 9.82566 9.03974C10.6013 9.83735 11.2947 10.6751 12.054 11.5319C12.4337 11.9602 12.4699 13.3748 12.1743 13.6727C11.7964 14.0108 10.973 13.9016 10.0661 13.3215C9.81886 13.1865 9.65379 13.0114 9.42285 12.8173C9.12601 12.6042 8.8461 12.5875 8.54985 12.6299C5.90056 13.208 5.48944 13.4089 3.63271 14.9809C3.07407 15.4585 2.94407 16.187 3.29108 16.7336C4.13263 17.5502 5.00682 18.2485 6.16034 18.708Z" fill="#FACF71"/>
</svg>
