<svg width="88" height="75" viewBox="0 0 88 75" fill="none" xmlns="http://www.w3.org/2000/svg">
<path d="M62.3614 4.13413C54.9168 4.24741 48.4398 7.07401 43.0255 12.2117C40.1031 15.1243 37.902 18.388 36.4224 22.0028C35.7068 23.8968 34.8923 24.6962 32.6797 23.4697C25.6579 19.9021 18.2133 20.0153 10.5845 23.1781C5.73842 25.1543 2.86824 29.7368 3.88822 34.1199C4.61539 36.7162 5.6296 38.8541 7.65217 40.885C9.9152 43.033 12.6574 44.6667 14.8719 46.6416C21.6106 52.1642 29.3517 55.3345 38.0025 57.3032C44.2021 58.6767 50.3534 59.8771 56.4579 61.6528C60.4954 62.7212 64.6685 60.567 66.4837 56.667C70.4009 48.4088 74.0776 40.0336 75.7357 31.1241C76.7305 25.7784 78.4934 20.2086 77.233 15.7084C75.0999 8.0927 69.7575 3.84775 62.3614 4.13413ZM68.6151 26.462C67.4806 33.5336 65.4812 40.4831 63.0494 47.3716C62.3338 49.2655 61.4263 51.2155 60.2783 53.0484C58.6047 55.9709 58.4126 56.0269 55.0481 55.1366C52.5485 54.3683 49.9073 54.5775 47.2642 54.0383C39.7673 52.4818 32.7958 49.8358 26.6854 45.8149C23.8949 44.0081 21.0561 42.0282 18.2171 40.0483C15.6671 38.3585 14.1234 35.8134 12.8202 33.3852C11.8061 31.2472 11.9438 28.7729 13.6678 26.7719C15.5838 24.7148 18.1785 25.0809 20.3892 25.5591C24.4266 26.6275 28.2234 27.5788 31.4968 30.3681C35.1075 33.6206 41.154 31.4813 42.7752 26.889C44.635 21.6653 46.4947 16.4417 51.1915 12.4496C51.335 12.2205 51.719 12.1084 51.8625 11.8793C59.3401 5.95211 66.6935 7.73778 68.877 16.2749C69.6061 19.6196 69.1348 23.1274 68.6151 26.462Z" fill="#E88280"/>
<path d="M52.3627 38.1332C49.1475 39.2589 50.1131 41.2239 49.83 43.1789C48.6296 43.342 47.3324 43.1589 46.3725 43.439C45.0286 43.8313 43.3958 43.9334 43.0157 45.5422C42.7791 46.9219 43.6944 47.9653 44.7532 48.7797C47.4487 50.9887 50.7143 50.7845 55.8474 48.3501C57.6703 47.4436 59.1013 43.6557 58.5661 41.0034C57.8835 37.0835 56.5378 36.7274 52.3627 38.1332Z" fill="#E88280"/>
<path d="M35.3095 37.3064C34.3011 37.4135 33.1006 37.5766 31.7083 37.7958C30.5564 38.132 29.1176 38.9263 29.7459 40.4281C30.2773 41.5836 30.9053 43.0854 33.0637 41.8937C33.7831 41.4965 34.7431 41.2164 35.6545 40.7632C36.8064 40.4269 37.621 39.6274 37.5221 38.5329C37.5668 37.2092 36.3663 37.3724 35.3095 37.3064Z" fill="#E88280"/>
<path d="M54.2588 28.5924C54.0668 28.6484 53.8749 28.7045 53.8749 28.7045C52.5795 29.2698 51.8136 30.2423 52.153 31.4539C52.7813 32.9556 54.3656 32.6804 55.7094 32.2882C57.3888 31.6108 59.2601 30.8774 59.9757 28.9834C60.2143 28.3521 59.6847 27.9449 59.2038 27.7108C57.2316 26.6013 55.9382 27.915 54.2588 28.5924Z" fill="#E88280"/>
</svg>
