<svg width="35" height="38" viewBox="0 0 35 38" fill="none" xmlns="http://www.w3.org/2000/svg">
<circle cx="16" cy="22" r="16" fill="#FAA57B" fill-opacity="0.64"/>
<path d="M14.2 22.56C14.46 22.7 14.69 22.84 14.89 22.98C15.11 23.1 15.32 23.23 15.52 23.37C15.94 23.61 16.35 23.87 16.75 24.15C17.15 24.43 17.53 24.74 17.89 25.08C18.25 25.44 18.63 25.78 19.03 26.1C19.45 26.4 19.91 26.66 20.41 26.88C20.59 26.94 20.7 27.06 20.74 27.24C20.78 27.4 20.73 27.56 20.59 27.72C20.39 28.04 20.08 28.15 19.66 28.05C19.46 28.01 19.26 27.97 19.06 27.93C18.88 27.87 18.7 27.8 18.52 27.72C18.06 27.54 17.59 27.38 17.11 27.24C16.63 27.08 16.16 26.9 15.7 26.7C15.34 26.54 15 26.36 14.68 26.16C14.38 25.94 14.07 25.74 13.75 25.56C13.39 25.36 13.03 25.15 12.67 24.93C12.31 24.71 11.95 24.5 11.59 24.3C11.01 23.98 10.7 23.55 10.66 23.01C10.64 22.45 10.88 21.97 11.38 21.57C12.2 20.89 13 20.21 13.78 19.53C14.58 18.83 15.35 18.08 16.09 17.28C16.37 17 16.65 16.72 16.93 16.44C17.23 16.16 17.52 15.87 17.8 15.57C17.92 15.47 18.05 15.36 18.19 15.24C18.33 15.12 18.47 15.02 18.61 14.94C18.79 14.84 18.99 14.79 19.21 14.79C19.45 14.79 19.64 14.86 19.78 15C20.18 15.3 20.29 15.67 20.11 16.11C19.97 16.43 19.8 16.73 19.6 17.01C19.42 17.27 19.23 17.54 19.03 17.82C18.33 18.7 17.57 19.52 16.75 20.28C15.93 21.04 15.08 21.8 14.2 22.56Z" fill="white"/>
</svg>
