<svg width="64" height="32" viewBox="0 0 64 32" fill="none" xmlns="http://www.w3.org/2000/svg">
<path d="M24.3914 12.3411C24.3914 18.6471 19.1508 23.7796 12.6606 23.7796C6.1703 23.7796 0.929688 18.6471 0.929688 12.3411C0.929688 6.0352 6.1703 0.902699 12.6606 0.902699C19.1508 0.902699 24.3914 6.0352 24.3914 12.3411Z" stroke="white"/>
<path d="M10.2562 12.9746C11.6031 15.0039 18.3375 17.63 20.919 11.4228" stroke="white" stroke-linecap="round"/>
<path d="M0.847839 13.3615C2.55528 12.8513 5.86563 12.8105 5.44749 16.7288C5.02934 20.647 7.71246 19.9259 9.10629 19.0756C9.8729 18.4634 11.6361 17.6471 12.556 19.2797C13.476 20.9123 15.0998 20.3681 15.7967 19.8919C16.6678 19.2797 18.661 18.7083 19.6646 21.3205" stroke="white" stroke-linecap="round"/>
<path d="M17.1557 20.8103L17.651 21.7094" stroke="white" stroke-linecap="round"/>
<path d="M15.4337 22.0265L14.4867 22.4597" stroke="white" stroke-linecap="round"/>
<path d="M12.3835 21.8307L12.1378 22.8229" stroke="white" stroke-linecap="round"/>
<path d="M4.40213 18.3614V19.3822" stroke="white" stroke-linecap="round"/>
<path d="M3.56586 15.9125L4.16125 16.7517" stroke="white" stroke-linecap="round"/>
<path d="M2.73291 14.2799L2.31117 15.214" stroke="white" stroke-linecap="round"/>
<path d="M8.04257 21.0144L7.11968 21.4945" stroke="white" stroke-linecap="round"/>
<path d="M10.4653 20.1981V21.2188" stroke="white" stroke-linecap="round"/>
<ellipse cx="0.960278" cy="2.75397" rx="0.960278" ry="2.75397" transform="matrix(0.997682 -0.0680455 0.0714032 0.997448 12.5719 6.49553)" fill="white"/>
<ellipse cx="0.960278" cy="2.75397" rx="0.960278" ry="2.75397" transform="matrix(0.997682 -0.0680455 0.0714032 0.997448 16.1103 6.2475)" fill="white"/>
<path d="M13.7439 9.51048L12.6354 9.31594L12.7766 9.8835L13.7439 9.51048Z" fill="#E88280"/>
<path d="M17.2312 9.31064L16.1226 9.1161L16.2638 9.68365L17.2312 9.31064Z" fill="#E88280"/>
<path d="M12.8507 29.7896L12.1047 23.7369H13.2166L14.0006 28.3611C16.9276 27.8509 17.5549 30.2998 17.3458 30.708C17.1785 31.0345 16.9973 31.1161 16.9276 31.1161C15.255 31.3202 13.2688 30.2998 13.0598 30.0957C12.8925 29.9325 12.8507 29.8236 12.8507 29.7896Z" fill="white"/>
<path d="M10.4368 28.0782L9.88088 23.7369H10.9928C11.167 25.4375 11.5962 29.708 11.5962 29.7896C11.5962 29.8712 11.5266 29.9597 11.4917 29.9937C10.1327 31.2181 7.72836 31.2181 7.41475 31.2181C7.16386 31.2181 7.10114 31.0141 7.10114 30.912C7.18477 28.4631 9.32176 27.9081 10.4368 28.0782Z" fill="white"/>
<path d="M32.0763 6.51746C32.0696 6.97079 32.013 7.41412 31.9063 7.84746C31.7996 8.27412 31.6363 8.68412 31.4163 9.07746C31.2096 9.45079 30.9696 9.80079 30.6963 10.1275C30.423 10.4475 30.113 10.7341 29.7663 10.9875C29.6796 11.0541 29.5896 11.1141 29.4963 11.1675C29.403 11.2141 29.303 11.2541 29.1963 11.2875C29.163 11.2941 29.1263 11.3008 29.0863 11.3075C29.0463 11.3141 29.0096 11.3208 28.9763 11.3275C28.8096 11.3408 28.6496 11.2875 28.4963 11.1675C28.3496 11.0475 28.2696 10.9008 28.2563 10.7275C28.2563 10.6808 28.2596 10.6375 28.2663 10.5975C28.2796 10.5575 28.3063 10.5275 28.3463 10.5075C28.393 10.4941 28.4163 10.4741 28.4163 10.4475C28.4163 10.4141 28.413 10.3841 28.4063 10.3575C28.3463 10.1041 28.2963 9.83746 28.2563 9.55746C28.2296 9.38412 28.1996 9.21079 28.1663 9.03746C28.1396 8.85746 28.1196 8.67746 28.1063 8.49746C28.0663 8.00412 28.0296 7.51079 27.9963 7.01746C27.963 6.52412 27.9296 6.03079 27.8963 5.53746V4.99746C27.8963 4.88412 27.913 4.78079 27.9463 4.68746C27.9796 4.59412 28.0263 4.49746 28.0863 4.39746C28.2463 4.15079 28.4363 3.95746 28.6563 3.81746C28.883 3.67746 29.1396 3.58079 29.4263 3.52746C29.7196 3.47412 29.993 3.49079 30.2463 3.57746C30.4996 3.65746 30.7396 3.78746 30.9663 3.96746C31.293 4.23412 31.543 4.54746 31.7163 4.90746C31.8896 5.26079 31.9996 5.64746 32.0463 6.06746C32.0596 6.11412 32.0663 6.16079 32.0663 6.20746C32.0663 6.24746 32.0696 6.29412 32.0763 6.34746V6.51746ZM29.0763 10.6275C29.1296 10.6008 29.1763 10.5708 29.2163 10.5375C29.2563 10.5041 29.2963 10.4741 29.3363 10.4475C29.5296 10.2808 29.703 10.0975 29.8563 9.89746C30.0163 9.69746 30.1663 9.49079 30.3063 9.27746C30.4996 8.99079 30.653 8.68746 30.7663 8.36746C30.8863 8.04746 30.9796 7.72412 31.0463 7.39746C31.113 7.06412 31.1396 6.73412 31.1263 6.40746C31.113 6.08079 31.0396 5.75746 30.9063 5.43746C30.8596 5.31746 30.7996 5.20079 30.7263 5.08746C30.6596 4.97412 30.5796 4.87412 30.4863 4.78746C30.2996 4.59412 30.103 4.48412 29.8963 4.45746C29.6963 4.42412 29.5063 4.44746 29.3263 4.52746C29.1463 4.60079 28.9896 4.70412 28.8563 4.83746C28.8296 4.86412 28.8096 4.89079 28.7963 4.91746C28.783 4.94412 28.7763 4.97746 28.7763 5.01746C28.7763 5.08412 28.7763 5.15412 28.7763 5.22746C28.783 5.29412 28.7896 5.36412 28.7963 5.43746C28.843 5.78412 28.8763 6.13746 28.8963 6.49746C28.923 6.85746 28.9496 7.21412 28.9763 7.56746C28.9896 7.73412 29.003 7.90412 29.0163 8.07746C29.0296 8.24412 29.0396 8.41412 29.0463 8.58746C29.0596 8.89412 29.0663 9.19746 29.0663 9.49746C29.0663 9.79746 29.0663 10.1041 29.0663 10.4175C29.0663 10.4441 29.063 10.4775 29.0563 10.5175C29.0563 10.5508 29.063 10.5875 29.0763 10.6275ZM35.3685 9.12746C35.3352 9.78079 35.0952 10.3908 34.6485 10.9575C34.5685 11.0641 34.4752 11.1575 34.3685 11.2375C34.2618 11.3108 34.1418 11.3675 34.0085 11.4075C33.7485 11.4675 33.4985 11.4375 33.2585 11.3175C33.1718 11.2641 33.0885 11.2008 33.0085 11.1275C32.9285 11.0475 32.8618 10.9641 32.8085 10.8775C32.6352 10.6041 32.5185 10.3241 32.4585 10.0375C32.3985 9.74412 32.3785 9.44412 32.3985 9.13746C32.4252 8.86412 32.4852 8.60412 32.5785 8.35746C32.6718 8.10412 32.8085 7.87412 32.9885 7.66746C33.1418 7.50079 33.3252 7.39746 33.5385 7.35746C33.6385 7.33079 33.7285 7.33079 33.8085 7.35746C33.8885 7.37746 33.9652 7.41746 34.0385 7.47746C34.0585 7.49746 34.0818 7.51079 34.1085 7.51746C34.1352 7.51746 34.1652 7.51746 34.1985 7.51746C34.3785 7.49746 34.5385 7.52412 34.6785 7.59746C34.8252 7.67079 34.9518 7.78079 35.0585 7.92746C35.1785 8.09412 35.2585 8.27412 35.2985 8.46746C35.3452 8.65412 35.3685 8.87412 35.3685 9.12746ZM33.9485 8.37746C33.8752 8.37746 33.7985 8.38746 33.7185 8.40746C33.6518 8.40746 33.6018 8.42412 33.5685 8.45746C33.5352 8.49079 33.5052 8.53746 33.4785 8.59746C33.3852 8.84412 33.3352 9.09079 33.3285 9.33746C33.3285 9.58412 33.3652 9.83412 33.4385 10.0875C33.4785 10.1941 33.5418 10.3041 33.6285 10.4175C33.6752 10.4641 33.7085 10.4908 33.7285 10.4975C33.7552 10.4975 33.7918 10.4741 33.8385 10.4275C33.8985 10.3675 33.9552 10.3075 34.0085 10.2475C34.0685 10.1808 34.1185 10.1108 34.1585 10.0375C34.1918 9.95746 34.2252 9.87412 34.2585 9.78746C34.2985 9.70079 34.3285 9.61412 34.3485 9.52746C34.3818 9.40079 34.4085 9.27412 34.4285 9.14746C34.4485 9.01412 34.4418 8.88079 34.4085 8.74746C34.3752 8.60746 34.3252 8.51079 34.2585 8.45746C34.1918 8.40412 34.0885 8.37746 33.9485 8.37746ZM29.8763 18.6875C29.7563 18.7941 29.6696 18.9041 29.6163 19.0175C29.4763 19.2641 29.363 19.5241 29.2763 19.7975C29.1896 20.0708 29.123 20.3508 29.0763 20.6375C29.0696 20.7041 29.0563 20.7708 29.0363 20.8375C29.0163 20.9041 28.9896 20.9641 28.9563 21.0175C28.8563 21.1841 28.723 21.2575 28.5563 21.2375C28.4696 21.2375 28.3963 21.2141 28.3363 21.1675C28.2763 21.1208 28.223 21.0608 28.1763 20.9875C28.1496 20.9275 28.1296 20.8641 28.1163 20.7975C28.1096 20.7308 28.0996 20.6641 28.0863 20.5975C28.053 20.3308 28.0163 20.0641 27.9763 19.7975C27.943 19.5241 27.9196 19.2541 27.9063 18.9875C27.893 18.8075 27.893 18.6275 27.9063 18.4475C27.9196 18.2675 27.9396 18.0875 27.9663 17.9075C27.9663 17.8741 27.973 17.8441 27.9863 17.8175C27.9996 17.7841 28.0096 17.7541 28.0163 17.7275C28.0763 17.5608 28.1863 17.4875 28.3463 17.5075C28.413 17.5141 28.473 17.5441 28.5263 17.5975C28.5796 17.6508 28.6096 17.7141 28.6163 17.7875C28.6363 17.9475 28.653 18.1041 28.6663 18.2575C28.6863 18.4108 28.7096 18.5641 28.7363 18.7175C28.743 18.7441 28.7463 18.7775 28.7463 18.8175C28.7463 18.8508 28.7563 18.8841 28.7763 18.9175C28.8096 18.9041 28.8296 18.8875 28.8363 18.8675C28.843 18.8408 28.8496 18.8175 28.8563 18.7975C28.923 18.6641 28.9896 18.5341 29.0563 18.4075C29.123 18.2741 29.1996 18.1541 29.2863 18.0475C29.3263 17.9941 29.3663 17.9441 29.4063 17.8975C29.4463 17.8441 29.493 17.7975 29.5463 17.7575C29.7196 17.6175 29.9063 17.5641 30.1063 17.5975C30.3063 17.6241 30.4696 17.7341 30.5963 17.9275C30.6563 18.0341 30.703 18.1475 30.7363 18.2675C30.7696 18.3808 30.793 18.4975 30.8063 18.6175C30.8396 18.8175 30.8663 19.0208 30.8863 19.2275C30.913 19.4275 30.9396 19.6275 30.9663 19.8275C30.9796 19.9475 30.9963 20.0675 31.0163 20.1875C31.043 20.3008 31.063 20.4175 31.0763 20.5375C31.0896 20.5841 31.1063 20.6241 31.1263 20.6575C31.1463 20.6908 31.1796 20.7241 31.2263 20.7575C31.3663 20.8308 31.4096 20.9475 31.3563 21.1075C31.2963 21.2741 31.193 21.3775 31.0463 21.4175C30.8996 21.4575 30.7596 21.4241 30.6263 21.3175C30.5663 21.2641 30.5163 21.2075 30.4763 21.1475C30.4363 21.0875 30.3996 21.0241 30.3663 20.9575C30.2596 20.7641 30.1796 20.5675 30.1263 20.3675C30.073 20.1675 30.033 19.9575 30.0063 19.7375C29.9863 19.5841 29.9696 19.4275 29.9563 19.2675C29.943 19.1075 29.9196 18.9508 29.8863 18.7975C29.8863 18.7841 29.883 18.7708 29.8763 18.7575C29.8763 18.7375 29.8763 18.7141 29.8763 18.6875ZM34.2621 20.4575C34.2354 20.5041 34.2054 20.5475 34.1721 20.5875C34.1454 20.6275 34.1154 20.6708 34.0821 20.7175C34.0354 20.7841 33.9821 20.8508 33.9221 20.9175C33.8687 20.9775 33.8087 21.0341 33.7421 21.0875C33.5221 21.2475 33.3054 21.3108 33.0921 21.2775C32.8787 21.2441 32.6987 21.1675 32.5521 21.0475C32.3721 20.8941 32.2421 20.7141 32.1621 20.5075C31.9754 20.0875 31.8654 19.6575 31.8321 19.2175C31.8054 18.7775 31.8421 18.3375 31.9421 17.8975C31.9821 17.6908 32.0721 17.5308 32.2121 17.4175C32.2721 17.3641 32.3354 17.3275 32.4021 17.3075C32.4687 17.2808 32.5387 17.2875 32.6121 17.3275C32.6854 17.3541 32.7387 17.4008 32.7721 17.4675C32.8054 17.5275 32.8221 17.5941 32.8221 17.6675C32.8221 17.7275 32.8221 17.7875 32.8221 17.8475C32.8221 17.9075 32.8187 17.9641 32.8121 18.0175C32.7854 18.2241 32.7721 18.4341 32.7721 18.6475C32.7721 18.8541 32.7854 19.0641 32.8121 19.2775C32.8254 19.4241 32.8454 19.5708 32.8721 19.7175C32.9054 19.8575 32.9554 19.9941 33.0221 20.1275C33.0354 20.1541 33.0487 20.1741 33.0621 20.1875C33.1021 20.2608 33.1387 20.3041 33.1721 20.3175C33.2054 20.3308 33.2587 20.3175 33.3321 20.2775C33.4854 20.1841 33.6054 20.0641 33.6921 19.9175C33.7921 19.7908 33.8687 19.6541 33.9221 19.5075C33.9754 19.3608 34.0187 19.2141 34.0521 19.0675C34.1121 18.8275 34.1521 18.5841 34.1721 18.3375C34.1921 18.0908 34.1987 17.8441 34.1921 17.5975C34.1921 17.3908 34.2721 17.2308 34.4321 17.1175C34.5654 17.0241 34.7121 17.0041 34.8721 17.0575C35.0387 17.1108 35.1454 17.2408 35.1921 17.4475C35.2187 17.5541 35.2321 17.6641 35.2321 17.7775C35.2387 17.8841 35.2354 17.9941 35.2221 18.1075C35.2154 18.4541 35.2087 18.8008 35.2021 19.1475C35.1954 19.4875 35.2021 19.8308 35.2221 20.1775C35.2354 20.3441 35.2387 20.5175 35.2321 20.6975C35.2254 20.8775 35.2187 21.0541 35.2121 21.2275C35.1921 21.3741 35.1154 21.4775 34.9821 21.5375C34.9154 21.5641 34.8487 21.5641 34.7821 21.5375C34.7154 21.5108 34.6587 21.4708 34.6121 21.4175C34.5721 21.3708 34.5387 21.3275 34.5121 21.2875C34.4921 21.2408 34.4754 21.1941 34.4621 21.1475C34.4221 21.0341 34.3854 20.9208 34.3521 20.8075C34.3254 20.6941 34.2954 20.5775 34.2621 20.4575ZM37.8567 20.8975C38.01 20.7841 38.13 20.6641 38.2167 20.5375C38.3367 20.3708 38.4534 20.2008 38.5667 20.0275C38.6867 19.8541 38.79 19.6741 38.8767 19.4875C38.8834 19.4608 38.89 19.4408 38.8967 19.4275C38.9034 19.4075 38.9067 19.3875 38.9067 19.3675C38.9134 19.2275 38.9934 19.1408 39.1467 19.1075C39.3 19.0941 39.4134 19.1508 39.4867 19.2775C39.5267 19.3241 39.55 19.3741 39.5567 19.4275C39.57 19.4741 39.5767 19.5275 39.5767 19.5875C39.55 19.9408 39.4567 20.2808 39.2967 20.6075C39.0967 21.0008 38.83 21.3275 38.4967 21.5875C38.4234 21.6475 38.3467 21.6975 38.2667 21.7375C38.1934 21.7841 38.11 21.8175 38.0167 21.8375C37.85 21.8775 37.6834 21.8608 37.5167 21.7875C37.35 21.7208 37.2167 21.6141 37.1167 21.4675C37.0567 21.3675 37.0034 21.2641 36.9567 21.1575C36.91 21.0441 36.87 20.9308 36.8367 20.8175C36.75 20.5708 36.6867 20.3175 36.6467 20.0575C36.6067 19.7975 36.57 19.5375 36.5367 19.2775C36.4834 18.9041 36.4434 18.5241 36.4167 18.1375C36.3834 17.7508 36.3667 17.3641 36.3667 16.9775C36.3667 16.9041 36.36 16.8608 36.3467 16.8475C36.3334 16.8341 36.2867 16.8341 36.2067 16.8475C36.12 16.8675 36.0334 16.8908 35.9467 16.9175C35.8534 16.9375 35.76 16.9541 35.6667 16.9675C35.5534 16.9941 35.4334 16.9775 35.3067 16.9175C35.1867 16.8441 35.12 16.7441 35.1067 16.6175C35.0934 16.4841 35.1334 16.3708 35.2267 16.2775C35.32 16.1975 35.42 16.1408 35.5267 16.1075C35.6467 16.0741 35.7667 16.0408 35.8867 16.0075C36 15.9741 36.1167 15.9441 36.2367 15.9175C36.3167 15.9041 36.3667 15.8908 36.3867 15.8775C36.4 15.8575 36.41 15.8041 36.4167 15.7175C36.4234 15.4908 36.4434 15.2675 36.4767 15.0475C36.5034 14.8208 36.5467 14.5941 36.6067 14.3675C36.6334 14.2875 36.6567 14.2075 36.6767 14.1275C36.7034 14.0408 36.74 13.9608 36.7867 13.8875C36.8267 13.8341 36.8667 13.7875 36.9067 13.7475C36.9467 13.7008 36.9934 13.6641 37.0467 13.6375C37.1734 13.5508 37.3134 13.5441 37.4667 13.6175C37.5334 13.6641 37.5734 13.7208 37.5867 13.7875C37.6067 13.8541 37.61 13.9241 37.5967 13.9975C37.5834 14.1441 37.5567 14.2908 37.5167 14.4375C37.4767 14.5775 37.45 14.7241 37.4367 14.8775C37.4234 15.0041 37.4067 15.1308 37.3867 15.2575C37.3734 15.3841 37.36 15.5141 37.3467 15.6475C37.3467 15.7075 37.35 15.7441 37.3567 15.7575C37.37 15.7641 37.41 15.7675 37.4767 15.7675C37.61 15.7675 37.7367 15.7641 37.8567 15.7575C37.9767 15.7508 38.1 15.7475 38.2267 15.7475C38.4534 15.7475 38.6434 15.8341 38.7967 16.0075C38.8367 16.0408 38.8667 16.0808 38.8867 16.1275C38.9134 16.1675 38.93 16.2108 38.9367 16.2575C38.95 16.3708 38.9134 16.4708 38.8267 16.5575C38.74 16.6375 38.65 16.6575 38.5567 16.6175C38.5434 16.6175 38.5267 16.6175 38.5067 16.6175C38.4934 16.6108 38.4767 16.6108 38.4567 16.6175C38.31 16.6708 38.16 16.6941 38.0067 16.6875C37.86 16.6808 37.71 16.6875 37.5567 16.7075H37.4167C37.3367 16.7075 37.2967 16.7475 37.2967 16.8275C37.31 16.9541 37.3167 17.0808 37.3167 17.2075C37.3167 17.3275 37.32 17.4508 37.3267 17.5775C37.34 17.9041 37.3634 18.2308 37.3967 18.5575C37.43 18.8841 37.4734 19.2075 37.5267 19.5275C37.5467 19.6941 37.57 19.8608 37.5967 20.0275C37.63 20.1875 37.67 20.3508 37.7167 20.5175C37.73 20.5775 37.75 20.6375 37.7767 20.6975C37.8034 20.7575 37.83 20.8241 37.8567 20.8975ZM31.9163 25.3875C31.8563 25.4741 31.803 25.5575 31.7563 25.6375C31.7163 25.7108 31.6796 25.7841 31.6463 25.8575C31.5263 26.0641 31.413 26.2775 31.3063 26.4975C31.1996 26.7108 31.093 26.9308 30.9863 27.1575C30.8996 27.3308 30.8163 27.5075 30.7363 27.6875C30.6563 27.8675 30.573 28.0508 30.4863 28.2375C30.4196 28.4041 30.2896 28.4941 30.0963 28.5075C30.0096 28.5141 29.9296 28.4975 29.8563 28.4575C29.7896 28.4175 29.7296 28.3608 29.6763 28.2875C29.6096 28.1808 29.5596 28.0608 29.5263 27.9275C29.4463 27.6475 29.3596 27.3708 29.2663 27.0975C29.1796 26.8241 29.1063 26.5508 29.0463 26.2775C29.0396 26.2175 29.0096 26.1575 28.9563 26.0975C28.9563 26.2041 28.9463 26.3041 28.9263 26.3975C28.913 26.7308 28.8963 27.0675 28.8763 27.4075C28.863 27.7475 28.8496 28.0841 28.8363 28.4175C28.823 28.6641 28.7996 28.9108 28.7663 29.1575C28.7396 29.4041 28.7096 29.6541 28.6763 29.9075C28.6696 29.9875 28.6596 30.0675 28.6463 30.1475C28.6396 30.2208 28.6296 30.3008 28.6163 30.3875C28.6096 30.4341 28.593 30.4808 28.5663 30.5275C28.5396 30.5675 28.4963 30.5941 28.4363 30.6075C28.383 30.6341 28.3263 30.6375 28.2663 30.6175C28.213 30.5908 28.1696 30.5475 28.1363 30.4875C28.1096 30.4541 28.0896 30.4175 28.0763 30.3775C28.0696 30.3308 28.0596 30.2841 28.0463 30.2375C27.9996 29.9508 27.9596 29.6608 27.9263 29.3675C27.8996 29.0741 27.8896 28.7841 27.8963 28.4975C27.9096 27.8508 27.9396 27.2141 27.9863 26.5875C28.0063 26.3741 28.023 26.1608 28.0363 25.9475C28.0496 25.7341 28.063 25.5175 28.0763 25.2975C28.0896 25.1241 28.1063 24.9508 28.1263 24.7775C28.153 24.5975 28.1896 24.4208 28.2363 24.2475C28.2496 24.1941 28.263 24.1441 28.2763 24.0975C28.2963 24.0441 28.3196 23.9941 28.3463 23.9475C28.473 23.7475 28.6463 23.6775 28.8663 23.7375C29.0196 23.7775 29.1363 23.8441 29.2163 23.9375C29.2963 24.0308 29.3596 24.1441 29.4063 24.2775C29.5396 24.6375 29.6563 25.0041 29.7563 25.3775C29.863 25.7441 29.973 26.1141 30.0863 26.4875C30.1063 26.5675 30.1296 26.6508 30.1563 26.7375C30.183 26.8241 30.2096 26.9108 30.2363 26.9975C30.283 26.9841 30.3096 26.9608 30.3163 26.9275C30.3296 26.8875 30.343 26.8541 30.3563 26.8275C30.5096 26.5808 30.6463 26.3275 30.7663 26.0675C30.8863 25.8075 31.0196 25.5508 31.1663 25.2975C31.2596 25.1241 31.3596 24.9541 31.4663 24.7875C31.573 24.6141 31.683 24.4441 31.7963 24.2775C31.8163 24.2441 31.8363 24.2075 31.8563 24.1675C31.883 24.1208 31.903 24.0775 31.9163 24.0375C31.9363 23.9441 31.983 23.8675 32.0563 23.8075C32.1363 23.7475 32.2196 23.7141 32.3063 23.7075C32.3996 23.7008 32.4863 23.7208 32.5663 23.7675C32.653 23.8141 32.7163 23.8808 32.7563 23.9675C32.7896 24.0141 32.8096 24.0708 32.8163 24.1375C32.8296 24.2041 32.8396 24.2675 32.8463 24.3275C32.8596 24.4941 32.8663 24.6675 32.8663 24.8475C32.873 25.0275 32.8796 25.2075 32.8863 25.3875C32.8863 25.8208 32.8763 26.2541 32.8563 26.6875C32.843 27.1208 32.8196 27.5541 32.7863 27.9875C32.773 28.1341 32.7663 28.2875 32.7663 28.4475C32.7663 28.6008 32.763 28.7575 32.7563 28.9175C32.743 29.2375 32.733 29.5608 32.7263 29.8875C32.7263 30.2075 32.7263 30.5275 32.7263 30.8475C32.7263 30.9941 32.6663 31.0841 32.5463 31.1175C32.413 31.1441 32.3163 31.0941 32.2563 30.9675C32.203 30.8541 32.1696 30.7308 32.1563 30.5975C32.1296 30.4441 32.113 30.2908 32.1063 30.1375C32.0996 29.9775 32.0896 29.8241 32.0763 29.6775C32.0563 29.4041 32.043 29.1275 32.0363 28.8475C32.0296 28.5675 32.013 28.2908 31.9863 28.0175C31.953 27.6041 31.933 27.1908 31.9263 26.7775C31.9196 26.3641 31.9196 25.9508 31.9263 25.5375C31.9263 25.5241 31.9263 25.5075 31.9263 25.4875C31.9263 25.4675 31.923 25.4341 31.9163 25.3875ZM33.6482 29.5475C33.6482 29.2341 33.6916 28.9341 33.7782 28.6475C33.8716 28.3541 33.9916 28.0675 34.1382 27.7875C34.2116 27.6541 34.2982 27.5275 34.3982 27.4075C34.4982 27.2875 34.6116 27.1841 34.7382 27.0975C34.9116 26.9775 35.0916 26.9075 35.2782 26.8875C35.4782 26.8741 35.6582 26.9175 35.8182 27.0175C35.9782 27.1175 36.1016 27.2541 36.1882 27.4275C36.2749 27.5941 36.3016 27.7841 36.2682 27.9975C36.2616 28.0575 36.2482 28.1208 36.2282 28.1875C36.2082 28.2541 36.1816 28.3175 36.1482 28.3775C36.0616 28.5441 35.9582 28.7041 35.8382 28.8575C35.7249 29.0041 35.5849 29.1341 35.4182 29.2475C35.3116 29.3208 35.1982 29.3841 35.0782 29.4375C34.9649 29.4841 34.8416 29.5041 34.7082 29.4975C34.6616 29.4975 34.6316 29.5041 34.6182 29.5175C34.6116 29.5308 34.6082 29.5608 34.6082 29.6075C34.6016 29.7141 34.6082 29.8208 34.6282 29.9275C34.6482 30.0341 34.6749 30.1408 34.7082 30.2475C34.7482 30.3341 34.7849 30.3841 34.8182 30.3975C34.8516 30.4108 34.9116 30.3908 34.9982 30.3375C35.1249 30.2708 35.2382 30.1808 35.3382 30.0675C35.3982 30.0141 35.4582 29.9675 35.5182 29.9275C35.5782 29.8808 35.6382 29.8341 35.6982 29.7875C35.7249 29.7608 35.7649 29.7341 35.8182 29.7075C35.9182 29.6741 36.0016 29.6841 36.0682 29.7375C36.1416 29.7841 36.1782 29.8608 36.1782 29.9675C36.1782 30.0141 36.1749 30.0608 36.1682 30.1075C36.1616 30.1541 36.1516 30.2008 36.1382 30.2475C36.0516 30.5008 35.9282 30.7208 35.7682 30.9075C35.6082 31.0941 35.3916 31.2308 35.1182 31.3175C34.7382 31.4175 34.4082 31.3275 34.1282 31.0475C33.9816 30.9008 33.8782 30.7375 33.8182 30.5575C33.7582 30.3775 33.7116 30.1908 33.6782 29.9975C33.6716 29.9241 33.6649 29.8508 33.6582 29.7775C33.6582 29.6975 33.6549 29.6208 33.6482 29.5475ZM35.5182 27.8975C35.5182 27.8508 35.5149 27.8108 35.5082 27.7775C35.5016 27.7375 35.4816 27.7108 35.4482 27.6975C35.4016 27.6708 35.3416 27.6875 35.2682 27.7475C35.2416 27.7608 35.2182 27.7775 35.1982 27.7975C35.1782 27.8175 35.1549 27.8408 35.1282 27.8675C35.0416 27.9741 34.9682 28.0908 34.9082 28.2175C34.8549 28.3441 34.8049 28.4708 34.7582 28.5975C34.7249 28.6441 34.7282 28.6808 34.7682 28.7075C34.7816 28.7208 34.7982 28.7275 34.8182 28.7275C34.8449 28.7208 34.8649 28.7141 34.8782 28.7075C35.1782 28.5408 35.3882 28.2941 35.5082 27.9675C35.5149 27.9541 35.5182 27.9408 35.5182 27.9275C35.5182 27.9075 35.5182 27.8975 35.5182 27.8975Z" fill="white"/>
</svg>
