<svg width="49" height="41" viewBox="0 0 49 41" fill="none" xmlns="http://www.w3.org/2000/svg">
<path d="M34.5546 2.25356C30.412 2.31531 26.8078 3.85612 23.795 6.65674C22.1688 8.24439 20.944 10.0235 20.1206 11.994C19.7224 13.0264 19.2692 13.4622 18.038 12.7936C14.1306 10.8489 9.98802 10.9106 5.74286 12.6346C3.04621 13.7119 1.44907 16.2098 2.01665 18.5991C2.42129 20.0144 2.98566 21.1798 4.11113 22.2869C5.37042 23.4578 6.89633 24.3483 8.12864 25.4248C11.8784 28.4352 16.1861 30.1634 20.9999 31.2366C24.4497 31.9853 27.8727 32.6396 31.2696 33.6076C33.5163 34.19 35.8385 33.0157 36.8485 30.8898C39.0284 26.3882 41.0742 21.8227 41.9969 16.9661C42.5505 14.0521 43.5315 11.0159 42.8301 8.56282C41.6431 4.41142 38.6703 2.09745 34.5546 2.25356ZM38.0346 14.4247C37.4033 18.2795 36.2907 22.0677 34.9375 25.8227C34.5393 26.8551 34.0343 27.9181 33.3955 28.9172C32.4642 30.5103 32.3573 30.5409 30.4851 30.0555C29.0942 29.6367 27.6245 29.7508 26.1537 29.4568C21.9819 28.6084 18.1026 27.166 14.7024 24.9742C13.1496 23.9893 11.5699 22.91 9.9901 21.8307C8.57111 20.9096 7.7121 19.5223 6.98696 18.1986C6.42261 17.0332 6.49928 15.6844 7.4586 14.5936C8.52475 13.4723 9.96861 13.6719 11.1988 13.9325C13.4454 14.5149 15.5582 15.0335 17.3797 16.554C19.389 18.327 22.7536 17.1608 23.6557 14.6575C24.6906 11.81 25.7255 8.96257 28.3391 6.78642C28.4189 6.66152 28.6326 6.60041 28.7124 6.47552C32.8734 3.24456 36.9653 4.21794 38.1803 8.87164C38.586 10.6948 38.3238 12.607 38.0346 14.4247Z" fill="#E88280"/>
<path d="M28.9907 20.7868C27.2015 21.4004 27.7389 22.4716 27.5813 23.5372C26.9134 23.6262 26.1915 23.5263 25.6574 23.6791C24.9096 23.8929 24.0009 23.9485 23.7894 24.8255C23.6578 25.5776 24.1671 26.1464 24.7563 26.5903C26.2562 27.7945 28.0734 27.6831 30.9298 26.3561C31.9441 25.862 32.7405 23.7972 32.4426 22.3514C32.0628 20.2146 31.314 20.0205 28.9907 20.7868Z" fill="#E88280"/>
<path d="M19.5011 20.3361C18.94 20.3945 18.272 20.4834 17.4972 20.6029C16.8562 20.7861 16.0556 21.2191 16.4052 22.0378C16.7009 22.6677 17.0504 23.4863 18.2515 22.8367C18.6518 22.6202 19.186 22.4675 19.6932 22.2204C20.3341 22.0371 20.7874 21.6013 20.7324 21.0047C20.7572 20.2831 20.0892 20.3721 19.5011 20.3361Z" fill="#E88280"/>
<path d="M30.046 15.586C29.9391 15.6166 29.8324 15.6471 29.8324 15.6471C29.1115 15.9553 28.6853 16.4854 28.8742 17.1458C29.2238 17.9644 30.1054 17.8144 30.8532 17.6006C31.7877 17.2314 32.829 16.8316 33.2272 15.7992C33.3599 15.455 33.0653 15.2331 32.7977 15.1054C31.7002 14.5007 30.9805 15.2168 30.046 15.586Z" fill="#E88280"/>
</svg>
