<svg width="37" height="37" viewBox="0 0 37 37" fill="none" xmlns="http://www.w3.org/2000/svg">
<circle cx="16" cy="21" r="16" fill="#FAA57B" fill-opacity="0.64"/>
<path d="M19.92 21.21C19.68 21.09 19.45 20.98 19.23 20.88C19.01 20.76 18.79 20.66 18.57 20.58C17.75 20.22 16.94 19.81 16.14 19.35C15.34 18.89 14.56 18.41 13.8 17.91C13.42 17.63 13.11 17.3 12.87 16.92C12.71 16.64 12.66 16.34 12.72 16.02C12.8 15.7 12.95 15.45 13.17 15.27C13.39 15.11 13.64 15.03 13.92 15.03C14.22 15.01 14.48 15.1 14.7 15.3C15.06 15.6 15.44 15.86 15.84 16.08C16.24 16.28 16.64 16.47 17.04 16.65C17.9 17.05 18.72 17.51 19.5 18.03C20.28 18.53 21.05 19.05 21.81 19.59C22.83 20.33 22.98 21.2 22.26 22.2C21.78 22.86 21.23 23.41 20.61 23.85C19.87 24.41 19.09 24.93 18.27 25.41C17.47 25.89 16.67 26.36 15.87 26.82C15.69 26.94 15.5 27.07 15.3 27.21C15.12 27.33 14.94 27.44 14.76 27.54C14.68 27.58 14.6 27.62 14.52 27.66C14.44 27.7 14.37 27.74 14.31 27.78C14.19 27.84 14.08 27.86 13.98 27.84C13.9 27.8 13.81 27.75 13.71 27.69C13.63 27.59 13.59 27.49 13.59 27.39C13.61 27.27 13.65 27.17 13.71 27.09C13.75 26.99 13.8 26.9 13.86 26.82C13.94 26.74 14.01 26.67 14.07 26.61C14.33 26.39 14.58 26.17 14.82 25.95C15.08 25.71 15.34 25.49 15.6 25.29C16.3 24.73 16.97 24.16 17.61 23.58C18.27 22.98 18.91 22.35 19.53 21.69C19.59 21.63 19.65 21.56 19.71 21.48C19.79 21.4 19.86 21.31 19.92 21.21Z" fill="white"/>
</svg>
