<svg width="58" height="84" viewBox="0 0 58 84" fill="none" xmlns="http://www.w3.org/2000/svg">
<path d="M38.059 82.2399C43.4535 79.348 47.2067 74.4222 51.5312 70.3497C53.2328 68.8085 54.7914 66.9608 55.9217 64.5663C58.8899 58.7001 57.0159 50.241 51.0331 46.6869C47.6857 44.7028 47.3927 41.8527 46.8146 38.7623C45.9457 33.5675 44.1534 28.6172 39.2395 25.8709C37.6015 24.9555 36.8871 23.7955 36.953 22.0846C37.0894 20.1541 37.0122 18.1367 37.077 16.053C36.9181 10.5267 34.0614 6.25992 29.8586 3.55502C26.7247 1.65788 23.0954 0.551945 19.2572 0.850442C16.6276 1.14472 14.4977 2.13909 12.2258 3.19974C8.107 4.74934 4.41749 7.21858 1.798 10.8684C1.30272 11.6597 0.16678 12.19 1.16635 13.5901C2.09435 14.837 3.23031 14.3067 4.22424 13.8427C4.65021 13.6438 5.0762 13.445 5.57261 13.0266C10.6082 8.99546 16.7205 8.38198 22.9055 8.29462C27.74 8.27776 31.0931 12.126 31.0373 17.1925C31.1123 18.4643 30.7601 19.5621 29.9808 20.486C29.0596 21.4761 28.1327 20.6021 27.1365 20.3205C21.6581 18.9579 16.8997 20.6193 12.8581 24.1864C7.4692 28.9425 7.12153 31.5316 10.4837 38.3627C11.7717 41.1216 14.9056 43.0187 17.6772 42.6581C23.007 41.85 27.336 39.2689 30.8074 35.2213C35.0581 30.2499 33.4213 29.7073 39.6232 35.2125C41.9756 37.2878 41.4133 39.4172 41.1361 41.7868C40.7873 44.0032 38.795 43.4399 37.4444 43.5104C30.9049 43.9499 25.223 45.8558 20.6883 50.9598C17.8542 54.1498 17.5122 58.6032 20.3666 62.1243C23.0791 65.7117 27.2058 66.7719 31.3246 65.2223C36.9349 63.1631 40.8324 58.9167 44.23 53.9702C45.3625 52.3213 46.2861 52.0768 47.8525 52.839C48.4931 53.0999 48.9918 53.4272 49.6324 53.6881C51.4839 54.6906 52.1983 55.8504 51.3509 57.7395C50.7863 59.1232 49.7947 60.3329 49.0165 61.6296C45.1236 67.3674 39.6621 71.5974 34.1994 75.4545C31.8583 77.1075 31.2255 79.4565 32.5124 81.8426C33.5847 83.7688 35.0068 83.8516 38.059 82.2399ZM18.0103 35.2221C17.0868 35.4666 16.2337 35.4915 15.5203 34.7044C14.6639 33.6108 15.5147 32.8402 16.0111 32.4218C18.208 30.0894 20.1187 27.1437 23.8161 27.2844C24.5272 27.3258 25.4507 27.0813 25.88 28.001C26.3094 28.9206 25.7426 29.5587 25.1042 30.0434C23.3321 31.8041 21.4885 33.4116 19.2882 34.6255C18.8622 34.8244 18.4363 35.0232 18.0103 35.2221ZM25.5419 57.2812C27.7332 53.0846 31.5681 51.6676 36.4718 51.0583C33.3593 56.2451 29.1711 58.3871 25.5419 57.2812Z" fill="#FAA57B"/>
</svg>
