<svg width="29" height="42" viewBox="0 0 29 42" fill="none" xmlns="http://www.w3.org/2000/svg">
<path d="M18.5776 40.562C21.3757 39.075 23.3603 36.6126 25.6261 34.561C26.5169 33.7838 27.3384 32.8582 27.9479 31.6702C29.543 28.7573 28.6937 24.6366 25.6783 22.9728C23.991 22.044 23.878 20.6512 23.6223 19.1444C23.2451 16.6103 22.3921 14.2079 19.9132 12.9259C19.0869 12.4986 18.7363 11.9395 18.7922 11.1003C18.887 10.1526 18.8737 9.16512 18.9339 8.14324C18.9243 5.43743 17.5178 3.38379 15.4022 2.11293C13.8231 1.22399 11.9802 0.72918 10.0122 0.925248C8.66271 1.10357 7.55988 1.61844 6.38354 2.16764C4.25567 2.98039 2.33559 4.23818 0.947742 6.06059C0.684025 6.45474 0.095846 6.72933 0.589189 7.40243C1.0479 8.00136 1.63609 7.72677 2.15074 7.4865C2.37131 7.38353 2.59188 7.28057 2.85134 7.0691C5.48052 5.02852 8.61637 4.64861 11.7826 4.52554C14.2568 4.45455 15.9227 6.2967 15.8284 8.77998C15.8503 9.40218 15.6558 9.94468 15.2451 10.4075C14.7608 10.9046 14.2978 10.4884 13.7917 10.3633C11.0059 9.7667 8.54928 10.6426 6.43475 12.4429C3.61536 14.8433 3.40385 16.1165 5.03573 19.42C5.65907 20.7552 7.23818 21.6441 8.6612 21.4315C11.3991 20.9663 13.6479 19.6454 15.4768 17.617C17.7166 15.1259 16.886 14.8813 19.9883 17.4983C21.1652 18.4847 20.8498 19.5354 20.6772 20.7001C20.4699 21.7907 19.4577 21.5405 18.7656 21.5926C15.4135 21.8928 12.4811 22.9004 10.0944 25.4602C8.60262 27.0601 8.36981 29.2467 9.78485 30.935C11.1264 32.6576 13.2244 33.1235 15.3522 32.3108C18.2499 31.229 20.2995 29.0977 22.1024 26.6298C22.7033 25.8072 23.1791 25.6754 23.9708 26.0285C24.2952 26.1481 24.5462 26.302 24.8706 26.4215C25.8051 26.8887 26.1556 27.4477 25.6975 28.3844C25.3906 29.0697 24.8674 29.6753 24.4524 30.3208C22.3858 33.1828 19.5361 35.3264 16.6906 37.2872C15.4711 38.1276 15.1168 39.2868 15.7444 40.4393C16.2681 41.3692 16.9948 41.3913 18.5776 40.562ZM8.92812 17.7835C8.45236 17.9153 8.01547 17.9385 7.66064 17.5621C7.23656 17.0374 7.68196 16.6488 7.94141 16.4373C9.09591 15.2659 10.1119 13.7978 12.0021 13.8187C12.3655 13.8297 12.8413 13.698 13.049 14.143C13.2568 14.5881 12.9585 14.9081 12.6255 15.1539C11.6958 16.0396 10.7315 16.8512 9.58981 17.4746C9.36924 17.5776 9.14868 17.6805 8.92812 17.7835ZM12.4961 28.4947C13.6719 26.4099 15.6527 25.6658 18.17 25.3037C16.5099 27.8856 14.3389 28.9895 12.4961 28.4947Z" fill="#FAA57B"/>
</svg>
