<svg width="22" height="17" viewBox="0 0 22 17" fill="none" xmlns="http://www.w3.org/2000/svg">
<path d="M0.970076 11.9004C1.39497 10.1697 2.34863 9.20875 4.01425 8.73775C5.56961 8.28254 5.53271 8.22443 4.91665 6.81187C4.6948 6.27293 4.62012 5.77633 4.67999 5.17591C4.78848 4.39943 5.03196 3.7093 5.23855 2.96104C5.60269 1.45042 7.34034 0.334974 9.51086 0.911966C11.3871 1.40428 12.9824 2.33841 14.3334 3.58232C16.188 5.30371 18.1037 6.99517 19.7504 8.89428C20.2296 9.45978 20.6477 10.0552 21.3228 10.487C22.3169 11.1056 21.6593 12.9119 20.7534 13.3164C19.5414 13.8704 18.3294 14.4244 17.0436 14.8621C15.1332 15.4527 13.1615 16.0733 11.1278 16.3433C9.42483 16.566 7.82041 17.0071 6.0801 16.9815C4.49911 16.9542 3.12515 16.3689 2.03204 15.3417C0.987983 14.3286 0.37238 13.1062 0.970076 11.9004ZM4.78767 14.5666C5.41277 14.604 6.11169 14.7575 6.798 14.765C7.97441 14.7233 9.06443 14.4193 10.2039 14.3196C12.0662 14.0952 13.7561 13.5362 15.5568 13.1515C16.6346 12.8915 17.5891 12.311 18.7161 12.0651C19.5 11.9105 19.5604 11.5003 18.9708 10.9506C17.3498 9.53395 16.1325 7.80586 14.4625 6.37512C12.9643 5.08887 11.5517 3.68468 9.49146 3.0919C8.36322 2.76728 7.2975 2.9833 6.78487 3.88106C6.19888 4.85274 6.53322 6.32675 7.51608 7.36972C8.09346 7.96345 8.60962 8.58709 9.17485 9.22483C9.45746 9.5437 9.48443 10.5967 9.26435 10.8185C8.98307 11.0701 8.37012 10.9888 7.69508 10.557C7.51101 10.4565 7.38814 10.3262 7.21623 10.1817C6.99526 10.0231 6.7869 10.0106 6.56638 10.0422C4.59429 10.4725 4.28825 10.622 2.90614 11.7923C2.49029 12.1477 2.39352 12.69 2.65183 13.0969C3.27827 13.7048 3.929 14.2246 4.78767 14.5666Z" fill="#FACF71"/>
</svg>
