<svg width="43" height="62" viewBox="0 0 43 62" fill="none" xmlns="http://www.w3.org/2000/svg">
<path d="M27.7535 60.7604C31.7691 58.6077 34.5629 54.941 37.782 51.9095C39.0487 50.7623 40.2088 49.3869 41.0502 47.6044C43.2598 43.2378 41.8648 36.9409 37.4113 34.2953C34.9195 32.8184 34.7014 30.6968 34.271 28.3964C33.6243 24.5294 32.2901 20.8444 28.6323 18.8001C27.413 18.1187 26.8812 17.2553 26.9302 15.9817C27.0317 14.5447 26.9743 13.0429 27.0225 11.4918C26.9042 7.37815 24.7778 4.20203 21.6492 2.18854C19.3164 0.776335 16.6149 -0.0469054 13.7577 0.175291C11.8003 0.394351 10.2148 1.13454 8.52369 1.92408C5.45768 3.07757 2.71127 4.91564 0.761353 7.63252C0.392677 8.22153 -0.4529 8.61628 0.291162 9.65854C0.981957 10.5867 1.82755 10.192 2.56742 9.84653C2.8845 9.6985 3.2016 9.55049 3.57112 9.23901C7.31953 6.23832 11.8695 5.78166 16.4735 5.71663C20.0722 5.70408 22.5682 8.56869 22.5267 12.3401C22.5825 13.2868 22.3203 14.104 21.7402 14.7917C21.0545 15.5287 20.3645 14.8781 19.623 14.6685C15.5449 13.6542 12.0029 14.891 8.99431 17.5462C4.98291 21.0866 4.72411 23.0139 7.22683 28.0988C8.18564 30.1525 10.5185 31.5647 12.5816 31.2963C16.549 30.6948 19.7714 28.7734 22.3555 25.7604C25.5197 22.0598 24.3013 21.6559 28.9179 25.7539C30.669 27.2987 30.2504 28.8838 30.044 30.6477C29.7844 32.2976 28.3013 31.8782 27.296 31.9307C22.4281 32.2579 18.1986 33.6766 14.8231 37.476C12.7133 39.8506 12.4587 43.1656 14.5836 45.7867C16.6027 48.4571 19.6745 49.2463 22.7405 48.0928C26.9168 46.5599 29.818 43.3989 32.3471 39.7168C33.1902 38.4895 33.8776 38.3075 35.0436 38.8748C35.5205 39.069 35.8917 39.3127 36.3686 39.5069C37.7468 40.2531 38.2786 41.1165 37.6478 42.5227C37.2275 43.5527 36.4894 44.4532 35.9101 45.4184C33.0123 49.6895 28.9468 52.8383 24.8805 55.7095C23.1378 56.94 22.6667 58.6885 23.6247 60.4646C24.4229 61.8985 25.4815 61.9601 27.7535 60.7604ZM12.8295 25.7611C12.1421 25.943 11.5071 25.9616 10.9761 25.3757C10.3385 24.5616 10.9719 23.988 11.3414 23.6766C12.9767 21.9403 14.399 19.7476 17.1513 19.8523C17.6806 19.8831 18.3681 19.7012 18.6877 20.3857C19.0073 21.0703 18.5853 21.5453 18.1101 21.9061C16.791 23.2167 15.4187 24.4133 13.7808 25.3169C13.4637 25.465 13.1466 25.613 12.8295 25.7611ZM18.436 42.1815C20.0671 39.0576 22.9218 38.0028 26.572 37.5493C24.2551 41.4103 21.1375 43.0047 18.436 42.1815Z" fill="#FAA57B"/>
</svg>
