<svg width="49" height="71" viewBox="0 0 49 71" fill="none" xmlns="http://www.w3.org/2000/svg">
<path d="M37.4569 7.73402C37.05 6.30302 36.0319 6.03057 35.2329 5.56574C34.3129 5.05175 33.612 4.34538 33.2282 3.20508C32.8703 1.65331 33.3345 0.857085 34.8889 0.503211C37.5362 -0.110451 37.8275 -0.132935 39.0074 2.17436C39.5613 3.24305 40.3602 3.7079 41.3293 4.10112C43.0252 4.78925 44.8422 5.52649 46.489 6.33539C48.4993 7.29174 48.8369 7.8507 47.9548 10.0246C47.6608 10.7492 47.4878 11.523 47.0005 12.0285C44.4892 15.0885 41.8078 18.2201 39.1753 21.2309C37.8346 22.7967 37.1798 22.6717 35.4867 21.2814C34.3013 20.3784 34.2809 19.3856 35.2092 17.7931C35.8925 16.8045 36.697 15.865 37.3082 14.7064C38.1875 13.2347 37.6826 12.0453 36.0561 12.2292C30.8363 12.9243 25.2069 12.8906 20.8009 16.4476C19.9244 17.2172 18.9756 17.8168 18.2202 18.6356C16.026 21.2616 16.0982 21.4315 19.4437 22.2264C22.7892 23.0213 25.5725 24.8539 28.3558 26.6866C31.1391 28.5192 30.7564 33.2868 28.1757 35.4747C26.2034 37.2062 24.2598 37.8241 21.6439 36.622C18.6645 35.2725 15.8553 33.8512 13.7784 31.3207C12.2813 29.4473 11.3585 29.6355 9.79861 31.3937C8.57901 33.0086 8.37751 34.896 8.63738 36.6893C8.85101 37.9012 9.50287 38.7284 11.1035 38.9559C15.5419 39.491 19.7095 41.0414 22.7527 44.6673C24.2498 46.5407 24.4838 48.7455 23.795 51.1384C23.1551 53.4106 21.5981 54.4666 19.487 54.4539C17.9585 54.3964 16.3348 53.8781 14.76 53.2392C11.6827 52.1311 8.8735 50.71 7.16277 47.6247C7.09064 47.4548 6.75041 47.598 6.62927 47.5489C6.58027 47.6696 6.23995 47.8128 6.31208 47.9828C7.06859 53.072 8.04423 57.9688 10.7444 62.4402C11.4194 63.558 12.2415 64.3136 13.4039 64.9259C15.0507 65.7348 15.723 67.5548 15.0859 69.1248C14.5959 70.3325 13.0415 70.6864 11.2967 70.119C7.61366 68.7652 5.46466 66.0647 4.12009 62.4247C2.58226 58.5657 1.67592 54.5409 0.769635 50.5161C0.030734 47.1219 -0.0534765 43.8526 2.67425 41.3024C3.38068 40.6045 3.50455 39.9515 3.31404 39.0302C3.21879 38.5696 3.19566 38.2789 3.10041 37.8183C1.85936 32.5325 4.01006 28.6229 8.04988 25.6205C9.04759 24.9001 9.87517 24.2513 10.0739 23.0661C12.2004 12.9579 22.6306 7.76621 31.7294 7.94183C33.4771 7.80703 35.3458 7.72136 37.4569 7.73402ZM20.8086 26.8592C19.5973 26.3677 18.9426 26.2427 18.1899 26.3593C17.146 26.4983 16.6328 27.4153 17.2126 28.0725C18.6144 29.4853 19.8951 30.8489 21.5161 32.0692C22.266 32.6548 23.5522 32.6141 24.2846 31.5047C24.9679 30.5161 24.4371 29.7381 23.8573 29.0809C22.842 28.1063 21.7287 27.3732 20.8086 26.8592ZM18.2691 49.4588C17.9426 46.0913 15.5745 43.5832 13.0279 43.2531C12.6155 43.2264 12.1541 43.3205 11.9349 43.5129C11.6668 43.8261 11.7621 44.2867 12.0275 44.6757C13.4007 47.202 14.9209 49.3661 18.2691 49.4588Z" fill="#FACF71"/>
</svg>
