<svg width="17" height="13" viewBox="0 0 17 13" fill="none" xmlns="http://www.w3.org/2000/svg">
<path d="M0.443231 9.1325C0.760861 7.86512 1.47376 7.16144 2.71888 6.81653C3.88158 6.48318 3.854 6.44062 3.39347 5.40622C3.22762 5.01155 3.17179 4.64789 3.21655 4.20821C3.29765 3.63959 3.47966 3.13421 3.6341 2.58627C3.90631 1.48005 5.20528 0.663212 6.82784 1.08574C8.23039 1.44626 9.42299 2.13032 10.4329 3.04123C11.8193 4.30179 13.2514 5.54044 14.4823 6.93116C14.8406 7.34527 15.1531 7.7813 15.6578 8.09749C16.4009 8.55049 15.9093 9.87322 15.2321 10.1694C14.3261 10.5751 13.4201 10.9808 12.4589 11.3014C11.0308 11.7339 9.55688 12.1883 8.03657 12.3861C6.76353 12.5491 5.56415 12.8722 4.2632 12.8534C3.08134 12.8334 2.05425 12.4048 1.2371 11.6526C0.456617 10.9107 -0.00357318 10.0155 0.443231 9.1325ZM3.29705 11.085C3.76434 11.1123 4.28681 11.2248 4.79986 11.2302C5.67928 11.1998 6.49411 10.9771 7.34594 10.9041C8.73808 10.7398 10.0014 10.3304 11.3474 10.0487C12.1532 9.85831 12.8667 9.43318 13.7091 9.2531C14.2952 9.13994 14.3403 8.83952 13.8996 8.43697C12.6878 7.39958 11.7778 6.13411 10.5294 5.08639C9.40946 4.14447 8.35347 3.11619 6.81333 2.6821C5.96993 2.44438 5.17326 2.60257 4.79004 3.26C4.35199 3.97155 4.60193 5.05097 5.33665 5.81473C5.76827 6.24951 6.15412 6.7062 6.57666 7.17322C6.78792 7.40673 6.80808 8.17784 6.64356 8.34022C6.43329 8.52451 5.97509 8.46495 5.47046 8.14876C5.33287 8.07519 5.24101 7.97971 5.1125 7.87391C4.94732 7.75777 4.79156 7.74865 4.62672 7.77177C3.15249 8.0869 2.92371 8.19639 1.89052 9.05334C1.57966 9.31364 1.50732 9.71075 1.70042 10.0087C2.1687 10.4538 2.65516 10.8345 3.29705 11.085Z" fill="#FACF71"/>
</svg>
