<svg width="15" height="11" viewBox="0 0 15 11" fill="none" xmlns="http://www.w3.org/2000/svg">
<path d="M8.56 6.8C8.7 6.54 8.84 6.31 8.98 6.11C9.1 5.89 9.23 5.68 9.37 5.48C9.61 5.06 9.87 4.65 10.15 4.25C10.43 3.85 10.74 3.47 11.08 3.11C11.44 2.75 11.78 2.37 12.1 1.97C12.4 1.55 12.66 1.09 12.88 0.589999C12.94 0.409999 13.06 0.299999 13.24 0.259999C13.4 0.219998 13.56 0.269998 13.72 0.409998C14.04 0.609998 14.15 0.919998 14.05 1.34C14.01 1.54 13.97 1.74 13.93 1.94C13.87 2.12 13.8 2.3 13.72 2.48C13.54 2.94 13.38 3.41 13.24 3.89C13.08 4.37 12.9 4.84 12.7 5.3C12.54 5.66 12.36 6 12.16 6.32C11.94 6.62 11.74 6.93 11.56 7.25C11.36 7.61 11.15 7.97 10.93 8.33C10.71 8.69 10.5 9.05 10.3 9.41C9.98 9.99 9.55 10.3 9.01 10.34C8.45 10.36 7.97 10.12 7.57 9.62C6.89 8.8 6.21 8 5.53 7.22C4.83 6.42 4.08 5.65 3.28 4.91C3 4.63 2.72 4.35 2.44 4.07C2.16 3.77 1.87 3.48 1.57 3.2C1.47 3.08 1.36 2.95 1.24 2.81C1.12 2.67 1.02 2.53 0.939999 2.39C0.839999 2.21 0.789999 2.01 0.789999 1.79C0.789999 1.55 0.859999 1.36 1 1.22C1.3 0.819999 1.67 0.709999 2.11 0.889999C2.43 1.03 2.73 1.2 3.01 1.4C3.27 1.58 3.54 1.77 3.82 1.97C4.7 2.67 5.52 3.43 6.28 4.25C7.04 5.07 7.8 5.92 8.56 6.8Z" fill="#E88280"/>
</svg>
