<svg width="41" height="40" viewBox="0 0 41 40" fill="none" xmlns="http://www.w3.org/2000/svg">
<path d="M3.41675 5C6.76358 4.99996 9.68428 7.02808 10.8476 9.9701M10.8476 9.9701C11.0507 10.4839 11.2003 11.0255 11.2891 11.5891L12.8632 21.5709C13.3157 24.4406 15.9672 26.4796 18.9331 26.2384L30.9078 25.2649C32.8012 25.1109 34.3137 23.6689 34.5489 21.8296C34.9178 18.9444 35.215 17.0961 35.5987 13.9965C35.6665 13.4484 35.7005 13.1742 35.6612 12.9403C35.5622 12.3505 35.1383 11.8504 34.563 11.6448C34.3349 11.5632 34.0495 11.5441 33.4786 11.5058L10.8476 9.9701ZM20.5001 33.3333C20.5001 34.2537 19.7352 34.9999 18.7917 34.9999C17.8483 34.9999 17.0834 34.2537 17.0834 33.3333C17.0834 32.4128 17.8483 31.6666 18.7917 31.6666C19.7352 31.6666 20.5001 32.4128 20.5001 33.3333ZM34.1667 33.3333C34.1667 34.2537 33.4019 34.9999 32.4584 34.9999C31.5149 34.9999 30.7501 34.2537 30.7501 33.3333C30.7501 32.4128 31.5149 31.6666 32.4584 31.6666C33.4019 31.6666 34.1667 32.4128 34.1667 33.3333Z" stroke="black" stroke-width="2" stroke-linecap="round" stroke-linejoin="round"/>
</svg>
