<svg width="124" height="111" viewBox="0 0 124 111" fill="none" xmlns="http://www.w3.org/2000/svg">
<path d="M67.6142 33.2428C67.6142 51.3148 52.6016 65.9856 34.0571 65.9856C15.5125 65.9856 0.5 51.3148 0.5 33.2428C0.5 15.1708 15.5125 0.5 34.0571 0.5C52.6016 0.5 67.6142 15.1708 67.6142 33.2428Z" stroke="black"/>
<path d="M27.3629 35.0066C31.1133 40.6572 49.8654 47.9698 57.0537 30.6855" stroke="black" stroke-linecap="round"/>
<path d="M1.16425 36.084C5.91865 34.6634 15.1364 34.5497 13.972 45.4602C12.8077 56.3706 20.2789 54.3628 24.1601 51.9951C26.2947 50.2903 31.2043 48.0173 33.7659 52.5633C36.3275 57.1094 40.849 55.594 42.7896 54.2681C45.2153 52.5633 50.7653 50.9722 53.5598 58.2459" stroke="black" stroke-linecap="round"/>
<path d="M46.5746 56.8252L47.9537 59.3287" stroke="black" stroke-linecap="round"/>
<path d="M41.7788 60.2119L39.142 61.4182" stroke="black" stroke-linecap="round"/>
<path d="M33.285 59.6665L32.6009 62.4294" stroke="black" stroke-linecap="round"/>
<path d="M11.062 50.0063V52.8488" stroke="black" stroke-linecap="round"/>
<path d="M8.73346 43.1873L10.3913 45.5241" stroke="black" stroke-linecap="round"/>
<path d="M6.41339 38.6411L5.23906 41.2422" stroke="black" stroke-linecap="round"/>
<path d="M21.1985 57.3936L18.6287 58.7305" stroke="black" stroke-linecap="round"/>
<path d="M27.9442 55.1204V57.9628" stroke="black" stroke-linecap="round"/>
<ellipse cx="2.67391" cy="7.66847" rx="2.67391" ry="7.66847" transform="matrix(0.997682 -0.0680455 0.0714032 0.997448 33.8099 16.9656)" fill="black"/>
<ellipse cx="2.67391" cy="7.66847" rx="2.67391" ry="7.66847" transform="matrix(0.997682 -0.0680455 0.0714032 0.997448 43.6631 17.2749)" fill="black"/>
<path d="M37.0739 25.3607L33.987 24.819L34.3802 26.3994L37.0739 25.3607Z" fill="white"/>
<path d="M46.7839 24.8043L43.6971 24.2626L44.0903 25.843L46.7839 24.8043Z" fill="white"/>
<path d="M35.0773 82.8539L33 66H36.0961L38.2792 78.8761C46.4296 77.4555 48.1762 84.2745 47.594 85.411C47.1283 86.3202 46.6237 86.5475 46.4296 86.5475C41.7723 87.1158 36.2416 84.2745 35.6595 83.7062C35.1937 83.2516 35.0773 82.9486 35.0773 82.8539Z" fill="black"/>
<path d="M29.2883 78.0883L28 65.5L30.8363 66C31.3215 70.7354 32.5167 82.6266 32.5167 82.8539C32.5167 83.0812 32.3227 83.3274 32.2256 83.4221C28.4415 86.8316 21.7465 86.8316 20.8733 86.8316C20.1747 86.8316 20 86.2634 20 85.9793C20.2329 79.1602 26.1834 77.6147 29.2883 78.0883Z" fill="black"/>
<path d="M83.12 25.36C83.1067 26.2667 82.9933 27.1533 82.78 28.02C82.5667 28.8733 82.24 29.6933 81.8 30.48C81.3867 31.2267 80.9067 31.9267 80.36 32.58C79.8133 33.22 79.1933 33.7933 78.5 34.3C78.3267 34.4333 78.1467 34.5533 77.96 34.66C77.7733 34.7533 77.5733 34.8333 77.36 34.9C77.2933 34.9133 77.22 34.9267 77.14 34.94C77.06 34.9533 76.9867 34.9667 76.92 34.98C76.5867 35.0067 76.2667 34.9 75.96 34.66C75.6667 34.42 75.5067 34.1267 75.48 33.78C75.48 33.6867 75.4867 33.6 75.5 33.52C75.5267 33.44 75.58 33.38 75.66 33.34C75.7533 33.3133 75.8 33.2733 75.8 33.22C75.8 33.1533 75.7933 33.0933 75.78 33.04C75.66 32.5333 75.56 32 75.48 31.44C75.4267 31.0933 75.3667 30.7467 75.3 30.4C75.2467 30.04 75.2067 29.68 75.18 29.32C75.1 28.3333 75.0267 27.3467 74.96 26.36C74.8933 25.3733 74.8267 24.3867 74.76 23.4V22.32C74.76 22.0933 74.7933 21.8867 74.86 21.7C74.9267 21.5133 75.02 21.32 75.14 21.12C75.46 20.6267 75.84 20.24 76.28 19.96C76.7333 19.68 77.2467 19.4867 77.82 19.38C78.4067 19.2733 78.9533 19.3067 79.46 19.48C79.9667 19.64 80.4467 19.9 80.9 20.26C81.5533 20.7933 82.0533 21.42 82.4 22.14C82.7467 22.8467 82.9667 23.62 83.06 24.46C83.0867 24.5533 83.1 24.6467 83.1 24.74C83.1 24.82 83.1067 24.9133 83.12 25.02V25.36ZM77.12 33.58C77.2267 33.5267 77.32 33.4667 77.4 33.4C77.48 33.3333 77.56 33.2733 77.64 33.22C78.0267 32.8867 78.3733 32.52 78.68 32.12C79 31.72 79.3 31.3067 79.58 30.88C79.9667 30.3067 80.2733 29.7 80.5 29.06C80.74 28.42 80.9267 27.7733 81.06 27.12C81.1933 26.4533 81.2467 25.7933 81.22 25.14C81.1933 24.4867 81.0467 23.84 80.78 23.2C80.6867 22.96 80.5667 22.7267 80.42 22.5C80.2867 22.2733 80.1267 22.0733 79.94 21.9C79.5667 21.5133 79.1733 21.2933 78.76 21.24C78.36 21.1733 77.98 21.22 77.62 21.38C77.26 21.5267 76.9467 21.7333 76.68 22C76.6267 22.0533 76.5867 22.1067 76.56 22.16C76.5333 22.2133 76.52 22.28 76.52 22.36C76.52 22.4933 76.52 22.6333 76.52 22.78C76.5333 22.9133 76.5467 23.0533 76.56 23.2C76.6533 23.8933 76.72 24.6 76.76 25.32C76.8133 26.04 76.8667 26.7533 76.92 27.46C76.9467 27.7933 76.9733 28.1333 77 28.48C77.0267 28.8133 77.0467 29.1533 77.06 29.5C77.0867 30.1133 77.1 30.72 77.1 31.32C77.1 31.92 77.1 32.5333 77.1 33.16C77.1 33.2133 77.0933 33.28 77.08 33.36C77.08 33.4267 77.0933 33.5 77.12 33.58ZM89.7044 30.58C89.6377 31.8867 89.1577 33.1067 88.2644 34.24C88.1044 34.4533 87.9177 34.64 87.7044 34.8C87.491 34.9467 87.251 35.06 86.9844 35.14C86.4644 35.26 85.9644 35.2 85.4844 34.96C85.311 34.8533 85.1444 34.7267 84.9844 34.58C84.8244 34.42 84.691 34.2533 84.5844 34.08C84.2377 33.5333 84.0044 32.9733 83.8844 32.4C83.7644 31.8133 83.7244 31.2133 83.7644 30.6C83.8177 30.0533 83.9377 29.5333 84.1244 29.04C84.311 28.5333 84.5844 28.0733 84.9444 27.66C85.251 27.3267 85.6177 27.12 86.0444 27.04C86.2444 26.9867 86.4244 26.9867 86.5844 27.04C86.7444 27.08 86.8977 27.16 87.0444 27.28C87.0844 27.32 87.131 27.3467 87.1844 27.36C87.2377 27.36 87.2977 27.36 87.3644 27.36C87.7244 27.32 88.0444 27.3733 88.3244 27.52C88.6177 27.6667 88.871 27.8867 89.0844 28.18C89.3244 28.5133 89.4844 28.8733 89.5644 29.26C89.6577 29.6333 89.7044 30.0733 89.7044 30.58ZM86.8644 29.08C86.7177 29.08 86.5644 29.1 86.4044 29.14C86.271 29.14 86.171 29.1733 86.1044 29.24C86.0377 29.3067 85.9777 29.4 85.9244 29.52C85.7377 30.0133 85.6377 30.5067 85.6244 31C85.6244 31.4933 85.6977 31.9933 85.8444 32.5C85.9244 32.7133 86.051 32.9333 86.2244 33.16C86.3177 33.2533 86.3844 33.3067 86.4244 33.32C86.4777 33.32 86.551 33.2733 86.6444 33.18C86.7644 33.06 86.8777 32.94 86.9844 32.82C87.1044 32.6867 87.2044 32.5467 87.2844 32.4C87.351 32.24 87.4177 32.0733 87.4844 31.9C87.5644 31.7267 87.6244 31.5533 87.6644 31.38C87.731 31.1267 87.7844 30.8733 87.8244 30.62C87.8644 30.3533 87.851 30.0867 87.7844 29.82C87.7177 29.54 87.6177 29.3467 87.4844 29.24C87.351 29.1333 87.1444 29.08 86.8644 29.08ZM78.72 53.7C78.48 53.9133 78.3067 54.1333 78.2 54.36C77.92 54.8533 77.6933 55.3733 77.52 55.92C77.3467 56.4667 77.2133 57.0267 77.12 57.6C77.1067 57.7333 77.08 57.8667 77.04 58C77 58.1333 76.9467 58.2533 76.88 58.36C76.68 58.6933 76.4133 58.84 76.08 58.8C75.9067 58.8 75.76 58.7533 75.64 58.66C75.52 58.5667 75.4133 58.4467 75.32 58.3C75.2667 58.18 75.2267 58.0533 75.2 57.92C75.1867 57.7867 75.1667 57.6533 75.14 57.52C75.0733 56.9867 75 56.4533 74.92 55.92C74.8533 55.3733 74.8067 54.8333 74.78 54.3C74.7533 53.94 74.7533 53.58 74.78 53.22C74.8067 52.86 74.8467 52.5 74.9 52.14C74.9 52.0733 74.9133 52.0133 74.94 51.96C74.9667 51.8933 74.9867 51.8333 75 51.78C75.12 51.4467 75.34 51.3 75.66 51.34C75.7933 51.3533 75.9133 51.4133 76.02 51.52C76.1267 51.6267 76.1867 51.7533 76.2 51.9C76.24 52.22 76.2733 52.5333 76.3 52.84C76.34 53.1467 76.3867 53.4533 76.44 53.76C76.4533 53.8133 76.46 53.88 76.46 53.96C76.46 54.0267 76.48 54.0933 76.52 54.16C76.5867 54.1333 76.6267 54.1 76.64 54.06C76.6533 54.0067 76.6667 53.96 76.68 53.92C76.8133 53.6533 76.9467 53.3933 77.08 53.14C77.2133 52.8733 77.3667 52.6333 77.54 52.42C77.62 52.3133 77.7 52.2133 77.78 52.12C77.86 52.0133 77.9533 51.92 78.06 51.84C78.4067 51.56 78.78 51.4533 79.18 51.52C79.58 51.5733 79.9067 51.7933 80.16 52.18C80.28 52.3933 80.3733 52.62 80.44 52.86C80.5067 53.0867 80.5533 53.32 80.58 53.56C80.6467 53.96 80.7 54.3667 80.74 54.78C80.7933 55.18 80.8467 55.58 80.9 55.98C80.9267 56.22 80.96 56.46 81 56.7C81.0533 56.9267 81.0933 57.16 81.12 57.4C81.1467 57.4933 81.18 57.5733 81.22 57.64C81.26 57.7067 81.3267 57.7733 81.42 57.84C81.7 57.9867 81.7867 58.22 81.68 58.54C81.56 58.8733 81.3533 59.08 81.06 59.16C80.7667 59.24 80.4867 59.1733 80.22 58.96C80.1 58.8533 80 58.74 79.92 58.62C79.84 58.5 79.7667 58.3733 79.7 58.24C79.4867 57.8533 79.3267 57.46 79.22 57.06C79.1133 56.66 79.0333 56.24 78.98 55.8C78.94 55.4933 78.9067 55.18 78.88 54.86C78.8533 54.54 78.8067 54.2267 78.74 53.92C78.74 53.8933 78.7333 53.8667 78.72 53.84C78.72 53.8 78.72 53.7533 78.72 53.7ZM87.4916 57.24C87.4382 57.3333 87.3782 57.42 87.3116 57.5C87.2582 57.58 87.1982 57.6667 87.1316 57.76C87.0382 57.8933 86.9316 58.0267 86.8116 58.16C86.7049 58.28 86.5849 58.3933 86.4516 58.5C86.0116 58.82 85.5782 58.9467 85.1516 58.88C84.7249 58.8133 84.3649 58.66 84.0716 58.42C83.7116 58.1133 83.4516 57.7533 83.2916 57.34C82.9182 56.5 82.6982 55.64 82.6316 54.76C82.5782 53.88 82.6516 53 82.8516 52.12C82.9316 51.7067 83.1116 51.3867 83.3916 51.16C83.5116 51.0533 83.6382 50.98 83.7716 50.94C83.9049 50.8867 84.0449 50.9 84.1916 50.98C84.3382 51.0333 84.4449 51.1267 84.5116 51.26C84.5782 51.38 84.6116 51.5133 84.6116 51.66C84.6116 51.78 84.6116 51.9 84.6116 52.02C84.6116 52.14 84.6049 52.2533 84.5916 52.36C84.5382 52.7733 84.5116 53.1933 84.5116 53.62C84.5116 54.0333 84.5382 54.4533 84.5916 54.88C84.6182 55.1733 84.6582 55.4667 84.7116 55.76C84.7782 56.04 84.8782 56.3133 85.0116 56.58C85.0382 56.6333 85.0649 56.6733 85.0916 56.7C85.1716 56.8467 85.2449 56.9333 85.3116 56.96C85.3782 56.9867 85.4849 56.96 85.6316 56.88C85.9382 56.6933 86.1782 56.4533 86.3516 56.16C86.5516 55.9067 86.7049 55.6333 86.8116 55.34C86.9182 55.0467 87.0049 54.7533 87.0716 54.46C87.1916 53.98 87.2716 53.4933 87.3116 53C87.3516 52.5067 87.3649 52.0133 87.3516 51.52C87.3516 51.1067 87.5116 50.7867 87.8316 50.56C88.0982 50.3733 88.3916 50.3333 88.7116 50.44C89.0449 50.5467 89.2582 50.8067 89.3516 51.22C89.4049 51.4333 89.4316 51.6533 89.4316 51.88C89.4449 52.0933 89.4382 52.3133 89.4116 52.54C89.3982 53.2333 89.3849 53.9267 89.3716 54.62C89.3582 55.3 89.3716 55.9867 89.4116 56.68C89.4382 57.0133 89.4449 57.36 89.4316 57.72C89.4182 58.08 89.4049 58.4333 89.3916 58.78C89.3516 59.0733 89.1982 59.28 88.9316 59.4C88.7982 59.4533 88.6649 59.4533 88.5316 59.4C88.3982 59.3467 88.2849 59.2667 88.1916 59.16C88.1116 59.0667 88.0449 58.98 87.9916 58.9C87.9516 58.8067 87.9182 58.7133 87.8916 58.62C87.8116 58.3933 87.7382 58.1667 87.6716 57.94C87.6182 57.7133 87.5582 57.48 87.4916 57.24ZM94.6808 58.12C94.9874 57.8933 95.2274 57.6533 95.4008 57.4C95.6408 57.0667 95.8741 56.7267 96.1008 56.38C96.3408 56.0333 96.5474 55.6733 96.7208 55.3C96.7341 55.2467 96.7474 55.2067 96.7608 55.18C96.7741 55.14 96.7808 55.1 96.7808 55.06C96.7941 54.78 96.9541 54.6067 97.2608 54.54C97.5674 54.5133 97.7941 54.6267 97.9408 54.88C98.0208 54.9733 98.0674 55.0733 98.0808 55.18C98.1074 55.2733 98.1208 55.38 98.1208 55.5C98.0674 56.2067 97.8808 56.8867 97.5608 57.54C97.1608 58.3267 96.6274 58.98 95.9608 59.5C95.8141 59.62 95.6608 59.72 95.5008 59.8C95.3541 59.8933 95.1874 59.96 95.0008 60C94.6674 60.08 94.3341 60.0467 94.0008 59.9C93.6674 59.7667 93.4008 59.5533 93.2008 59.26C93.0808 59.06 92.9741 58.8533 92.8808 58.64C92.7874 58.4133 92.7074 58.1867 92.6408 57.96C92.4674 57.4667 92.3408 56.96 92.2608 56.44C92.1808 55.92 92.1074 55.4 92.0408 54.88C91.9341 54.1333 91.8541 53.3733 91.8008 52.6C91.7341 51.8267 91.7008 51.0533 91.7008 50.28C91.7008 50.1333 91.6874 50.0467 91.6608 50.02C91.6341 49.9933 91.5408 49.9933 91.3808 50.02C91.2074 50.06 91.0341 50.1067 90.8608 50.16C90.6741 50.2 90.4874 50.2333 90.3008 50.26C90.0741 50.3133 89.8341 50.28 89.5808 50.16C89.3408 50.0133 89.2074 49.8133 89.1808 49.56C89.1541 49.2933 89.2341 49.0667 89.4208 48.88C89.6074 48.72 89.8074 48.6067 90.0208 48.54C90.2608 48.4733 90.5008 48.4067 90.7408 48.34C90.9674 48.2733 91.2008 48.2133 91.4408 48.16C91.6008 48.1333 91.7008 48.1067 91.7408 48.08C91.7674 48.04 91.7874 47.9333 91.8008 47.76C91.8141 47.3067 91.8541 46.86 91.9208 46.42C91.9741 45.9667 92.0608 45.5133 92.1808 45.06C92.2341 44.9 92.2808 44.74 92.3208 44.58C92.3741 44.4067 92.4474 44.2467 92.5408 44.1C92.6208 43.9933 92.7008 43.9 92.7808 43.82C92.8608 43.7267 92.9541 43.6533 93.0608 43.6C93.3141 43.4267 93.5941 43.4133 93.9008 43.56C94.0341 43.6533 94.1141 43.7667 94.1408 43.9C94.1808 44.0333 94.1874 44.1733 94.1608 44.32C94.1341 44.6133 94.0808 44.9067 94.0008 45.2C93.9208 45.48 93.8674 45.7733 93.8408 46.08C93.8141 46.3333 93.7808 46.5867 93.7408 46.84C93.7141 47.0933 93.6874 47.3533 93.6608 47.62C93.6608 47.74 93.6674 47.8133 93.6808 47.84C93.7074 47.8533 93.7874 47.86 93.9208 47.86C94.1874 47.86 94.4408 47.8533 94.6808 47.84C94.9208 47.8267 95.1674 47.82 95.4208 47.82C95.8741 47.82 96.2541 47.9933 96.5608 48.34C96.6408 48.4067 96.7008 48.4867 96.7408 48.58C96.7941 48.66 96.8274 48.7467 96.8408 48.84C96.8674 49.0667 96.7941 49.2667 96.6208 49.44C96.4474 49.6 96.2674 49.64 96.0808 49.56C96.0541 49.56 96.0208 49.56 95.9808 49.56C95.9541 49.5467 95.9208 49.5467 95.8808 49.56C95.5874 49.6667 95.2874 49.7133 94.9808 49.7C94.6874 49.6867 94.3874 49.7 94.0808 49.74H93.8008C93.6408 49.74 93.5608 49.82 93.5608 49.98C93.5874 50.2333 93.6008 50.4867 93.6008 50.74C93.6008 50.98 93.6074 51.2267 93.6208 51.48C93.6474 52.1333 93.6941 52.7867 93.7608 53.44C93.8274 54.0933 93.9141 54.74 94.0208 55.38C94.0608 55.7133 94.1074 56.0467 94.1608 56.38C94.2274 56.7 94.3074 57.0267 94.4008 57.36C94.4274 57.48 94.4674 57.6 94.5208 57.72C94.5741 57.84 94.6274 57.9733 94.6808 58.12ZM82.8 71.1C82.68 71.2733 82.5733 71.44 82.48 71.6C82.4 71.7467 82.3267 71.8933 82.26 72.04C82.02 72.4533 81.7933 72.88 81.58 73.32C81.3667 73.7467 81.1533 74.1867 80.94 74.64C80.7667 74.9867 80.6 75.34 80.44 75.7C80.28 76.06 80.1133 76.4267 79.94 76.8C79.8067 77.1333 79.5467 77.3133 79.16 77.34C78.9867 77.3533 78.8267 77.32 78.68 77.24C78.5467 77.16 78.4267 77.0467 78.32 76.9C78.1867 76.6867 78.0867 76.4467 78.02 76.18C77.86 75.62 77.6867 75.0667 77.5 74.52C77.3267 73.9733 77.18 73.4267 77.06 72.88C77.0467 72.76 76.9867 72.64 76.88 72.52C76.88 72.7333 76.86 72.9333 76.82 73.12C76.7933 73.7867 76.76 74.46 76.72 75.14C76.6933 75.82 76.6667 76.4933 76.64 77.16C76.6133 77.6533 76.5667 78.1467 76.5 78.64C76.4467 79.1333 76.3867 79.6333 76.32 80.14C76.3067 80.3 76.2867 80.46 76.26 80.62C76.2467 80.7667 76.2267 80.9267 76.2 81.1C76.1867 81.1933 76.1533 81.2867 76.1 81.38C76.0467 81.46 75.96 81.5133 75.84 81.54C75.7333 81.5933 75.62 81.6 75.5 81.56C75.3933 81.5067 75.3067 81.42 75.24 81.3C75.1867 81.2333 75.1467 81.16 75.12 81.08C75.1067 80.9867 75.0867 80.8933 75.06 80.8C74.9667 80.2267 74.8867 79.6467 74.82 79.06C74.7667 78.4733 74.7467 77.8933 74.76 77.32C74.7867 76.0267 74.8467 74.7533 74.94 73.5C74.98 73.0733 75.0133 72.6467 75.04 72.22C75.0667 71.7933 75.0933 71.36 75.12 70.92C75.1467 70.5733 75.18 70.2267 75.22 69.88C75.2733 69.52 75.3467 69.1667 75.44 68.82C75.4667 68.7133 75.4933 68.6133 75.52 68.52C75.56 68.4133 75.6067 68.3133 75.66 68.22C75.9133 67.82 76.26 67.68 76.7 67.8C77.0067 67.88 77.24 68.0133 77.4 68.2C77.56 68.3867 77.6867 68.6133 77.78 68.88C78.0467 69.6 78.28 70.3333 78.48 71.08C78.6933 71.8133 78.9133 72.5533 79.14 73.3C79.18 73.46 79.2267 73.6267 79.28 73.8C79.3333 73.9733 79.3867 74.1467 79.44 74.32C79.5333 74.2933 79.5867 74.2467 79.6 74.18C79.6267 74.1 79.6533 74.0333 79.68 73.98C79.9867 73.4867 80.26 72.98 80.5 72.46C80.74 71.94 81.0067 71.4267 81.3 70.92C81.4867 70.5733 81.6867 70.2333 81.9 69.9C82.1133 69.5533 82.3333 69.2133 82.56 68.88C82.6 68.8133 82.64 68.74 82.68 68.66C82.7333 68.5667 82.7733 68.48 82.8 68.4C82.84 68.2133 82.9333 68.06 83.08 67.94C83.24 67.82 83.4067 67.7533 83.58 67.74C83.7667 67.7267 83.94 67.7667 84.1 67.86C84.2733 67.9533 84.4 68.0867 84.48 68.26C84.5467 68.3533 84.5867 68.4667 84.6 68.6C84.6267 68.7333 84.6467 68.86 84.66 68.98C84.6867 69.3133 84.7 69.66 84.7 70.02C84.7133 70.38 84.7267 70.74 84.74 71.1C84.74 71.9667 84.72 72.8333 84.68 73.7C84.6533 74.5667 84.6067 75.4333 84.54 76.3C84.5133 76.5933 84.5 76.9 84.5 77.22C84.5 77.5267 84.4933 77.84 84.48 78.16C84.4533 78.8 84.4333 79.4467 84.42 80.1C84.42 80.74 84.42 81.38 84.42 82.02C84.42 82.3133 84.3 82.4933 84.06 82.56C83.7933 82.6133 83.6 82.5133 83.48 82.26C83.3733 82.0333 83.3067 81.7867 83.28 81.52C83.2267 81.2133 83.1933 80.9067 83.18 80.6C83.1667 80.28 83.1467 79.9733 83.12 79.68C83.08 79.1333 83.0533 78.58 83.04 78.02C83.0267 77.46 82.9933 76.9067 82.94 76.36C82.8733 75.5333 82.8333 74.7067 82.82 73.88C82.8067 73.0533 82.8067 72.2267 82.82 71.4C82.82 71.3733 82.82 71.34 82.82 71.3C82.82 71.26 82.8133 71.1933 82.8 71.1ZM86.2639 79.42C86.2639 78.7933 86.3506 78.1933 86.5239 77.62C86.7106 77.0333 86.9506 76.46 87.2439 75.9C87.3906 75.6333 87.5639 75.38 87.7639 75.14C87.9639 74.9 88.1906 74.6933 88.4439 74.52C88.7906 74.28 89.1506 74.14 89.5239 74.1C89.9239 74.0733 90.2839 74.16 90.6039 74.36C90.9239 74.56 91.1706 74.8333 91.3439 75.18C91.5172 75.5133 91.5706 75.8933 91.5039 76.32C91.4906 76.44 91.4639 76.5667 91.4239 76.7C91.3839 76.8333 91.3306 76.96 91.2639 77.08C91.0906 77.4133 90.8839 77.7333 90.6439 78.04C90.4172 78.3333 90.1372 78.5933 89.8039 78.82C89.5906 78.9667 89.3639 79.0933 89.1239 79.2C88.8972 79.2933 88.6506 79.3333 88.3839 79.32C88.2906 79.32 88.2306 79.3333 88.2039 79.36C88.1906 79.3867 88.1839 79.4467 88.1839 79.54C88.1706 79.7533 88.1839 79.9667 88.2239 80.18C88.2639 80.3933 88.3172 80.6067 88.3839 80.82C88.4639 80.9933 88.5372 81.0933 88.6039 81.12C88.6706 81.1467 88.7906 81.1067 88.9639 81C89.2172 80.8667 89.4439 80.6867 89.6439 80.46C89.7639 80.3533 89.8839 80.26 90.0039 80.18C90.1239 80.0867 90.2439 79.9933 90.3639 79.9C90.4172 79.8467 90.4972 79.7933 90.6039 79.74C90.8039 79.6733 90.9706 79.6933 91.1039 79.8C91.2506 79.8933 91.3239 80.0467 91.3239 80.26C91.3239 80.3533 91.3172 80.4467 91.3039 80.54C91.2906 80.6333 91.2706 80.7267 91.2439 80.82C91.0706 81.3267 90.8239 81.7667 90.5039 82.14C90.1839 82.5133 89.7506 82.7867 89.2039 82.96C88.4439 83.16 87.7839 82.98 87.2239 82.42C86.9306 82.1267 86.7239 81.8 86.6039 81.44C86.4839 81.08 86.3906 80.7067 86.3239 80.32C86.3106 80.1733 86.2972 80.0267 86.2839 79.88C86.2839 79.72 86.2772 79.5667 86.2639 79.42ZM90.0039 76.12C90.0039 76.0267 89.9972 75.9467 89.9839 75.88C89.9706 75.8 89.9306 75.7467 89.8639 75.72C89.7706 75.6667 89.6506 75.7 89.5039 75.82C89.4506 75.8467 89.4039 75.88 89.3639 75.92C89.3239 75.96 89.2772 76.0067 89.2239 76.06C89.0506 76.2733 88.9039 76.5067 88.7839 76.76C88.6772 77.0133 88.5772 77.2667 88.4839 77.52C88.4172 77.6133 88.4239 77.6867 88.5039 77.74C88.5306 77.7667 88.5639 77.78 88.6039 77.78C88.6572 77.7667 88.6972 77.7533 88.7239 77.74C89.3239 77.4067 89.7439 76.9133 89.9839 76.26C89.9972 76.2333 90.0039 76.2067 90.0039 76.18C90.0039 76.14 90.0039 76.12 90.0039 76.12Z" fill="black"/>
</svg>
