<svg width="31" height="31" viewBox="0 0 31 31" fill="none" xmlns="http://www.w3.org/2000/svg">
<path fill-rule="evenodd" clip-rule="evenodd" d="M13.637 15.6411L8.80113 18.4695L4.96791 16.71L4.18103 18.4409L6.79698 19.6417L5.35807 20.4833L6.29459 22.1266L7.73326 21.2852L7.45185 24.1801L9.32503 24.3553L9.73741 20.113L14.5755 17.2832V22.9719L11.1521 25.4566L12.2631 26.9873L14.5755 25.309V26.9885H16.4669V25.3089L18.7794 26.9873L19.8904 25.4566L16.4669 22.9718V17.2963L21.3159 20.1324L21.7283 24.3752L23.6014 24.2L23.32 21.3046L24.759 22.1463L25.6955 20.503L24.2567 19.6615L26.8723 18.4608L26.0854 16.7299L22.2526 18.4892L17.3831 15.6411L22.2376 12.8018L26.0957 14.5728L26.8826 12.8418L24.2417 11.6296L25.6974 10.7781L24.7609 9.13487L23.333 9.97L23.6118 7.10259L21.7386 6.92746L21.3289 11.1422L16.4669 13.9859V8.32735L19.9124 5.82664L18.8014 4.29591L16.4669 5.99027V4.2915H14.5755V5.95827L12.2851 4.29591L11.1741 5.82664L14.5755 8.29535V13.999L9.75227 11.178L9.33719 6.9078L7.46401 7.08293L7.74812 10.0058L6.29269 9.15449L5.35617 10.7978L6.78397 11.6329L4.19318 12.8221L4.98006 14.5531L8.78812 12.8051L13.637 15.6411Z" fill="#E88280"/>
</svg>
