<svg width="20" height="20" viewBox="0 0 20 20" fill="none" xmlns="http://www.w3.org/2000/svg">
<path d="M1 4.2C1 3.07989 1 2.51984 1.21799 2.09202C1.40973 1.71569 1.71569 1.40973 2.09202 1.21799C2.51984 1 3.0799 1 4.2 1H4.8C5.9201 1 6.48016 1 6.90798 1.21799C7.28431 1.40973 7.59027 1.71569 7.78201 2.09202C8 2.51984 8 3.0799 8 4.2V15.8C8 16.9201 8 17.4802 7.78201 17.908C7.59027 18.2843 7.28431 18.5903 6.90798 18.782C6.48016 19 5.9201 19 4.8 19H4.2C3.0799 19 2.51984 19 2.09202 18.782C1.71569 18.5903 1.40973 18.2843 1.21799 17.908C1 17.4802 1 16.9201 1 15.8V4.2Z" stroke="#E88280" stroke-width="2" stroke-linecap="round" stroke-linejoin="round"/>
<path d="M12 3.5C12 3.03534 12 2.80302 12.0384 2.60982C12.1962 1.81644 12.8164 1.19624 13.6098 1.03843C13.803 1 14.0353 1 14.5 1H16.5C16.9647 1 17.197 1 17.3902 1.03843C18.1836 1.19624 18.8038 1.81644 18.9616 2.60982C19 2.80302 19 3.03534 19 3.5C19 3.96466 19 4.19698 18.9616 4.39018C18.8038 5.18356 18.1836 5.80376 17.3902 5.96157C17.197 6 16.9647 6 16.5 6H14.5C14.0353 6 13.803 6 13.6098 5.96157C12.8164 5.80376 12.1962 5.18356 12.0384 4.39018C12 4.19698 12 3.96466 12 3.5Z" stroke="#E88280" stroke-width="2" stroke-linecap="round" stroke-linejoin="round"/>
<path d="M12 13.2C12 12.0799 12 11.5198 12.218 11.092C12.4097 10.7157 12.7157 10.4097 13.092 10.218C13.5198 10 14.0799 10 15.2 10H15.8C16.9201 10 17.4802 10 17.908 10.218C18.2843 10.4097 18.5903 10.7157 18.782 11.092C19 11.5198 19 12.0799 19 13.2V15.8C19 16.9201 19 17.4802 18.782 17.908C18.5903 18.2843 18.2843 18.5903 17.908 18.782C17.4802 19 16.9201 19 15.8 19H15.2C14.0799 19 13.5198 19 13.092 18.782C12.7157 18.5903 12.4097 18.2843 12.218 17.908C12 17.4802 12 16.9201 12 15.8V13.2Z" stroke="#E88280" stroke-width="2" stroke-linecap="round" stroke-linejoin="round"/>
</svg>
